<?xml version="1.0" standalone="no"?>
<!DOCTYPE svg PUBLIC "-//W3C//DTD SVG 1.1//EN" "http://www.w3.org/Graphics/SVG/1.1/DTD/svg11.dtd">
<svg width="855" height="600" version="1.1" xmlns="http://www.w3.org/2000/svg">
<rect width="855" height="600" x="0" y="0" style="fill:rgb(238,238,238);stroke:none"/>
<rect width="855" height="600" x="0" y="0" style="fill:rgb(255,255,255);stroke:none"/>
<text x="2" y="566" fill="rgb(0,0,0)" font-family="Arial" font-size="12">0</text>
<text x="2" y="476" fill="rgb(0,0,0)" font-family="Arial" font-size="12">20</text>
<text x="2" y="385" fill="rgb(0,0,0)" font-family="Arial" font-size="12">40</text>
<text x="2" y="294" fill="rgb(0,0,0)" font-family="Arial" font-size="12">60</text>
<text x="2" y="203" fill="rgb(0,0,0)" font-family="Arial" font-size="12">80</text>
<text x="2" y="113" fill="rgb(0,0,0)" font-family="Arial" font-size="12">100</text>
<text x="397" y="30" fill="rgb(0,0,0)" font-family="Arial" font-size="12">Log2 Obs/Exp</text>
<line x1="26" y1="560" x2="845" y2="560" stroke="rgb(0,0,0)" stroke-width="1"/>
<line x1="26" y1="560" x2="26" y2="40" stroke="rgb(0,0,0)" stroke-width="1"/>
<text x="372" y="595" fill="rgb(0,0,0)" font-family="Arial" font-size="12">Position in read (bp)</text>
<text x="30" y="575" fill="rgb(0,0,0)" font-family="Arial" font-size="12">1</text>
<rect width="14" height="520" x="40" y="40" style="fill:rgb(230,230,230);stroke:none"/>
<text x="44" y="575" fill="rgb(0,0,0)" font-family="Arial" font-size="12">2</text>
<text x="58" y="575" fill="rgb(0,0,0)" font-family="Arial" font-size="12">3</text>
<rect width="14" height="520" x="68" y="40" style="fill:rgb(230,230,230);stroke:none"/>
<text x="72" y="575" fill="rgb(0,0,0)" font-family="Arial" font-size="12">4</text>
<text x="86" y="575" fill="rgb(0,0,0)" font-family="Arial" font-size="12">5</text>
<rect width="14" height="520" x="96" y="40" style="fill:rgb(230,230,230);stroke:none"/>
<text x="100" y="575" fill="rgb(0,0,0)" font-family="Arial" font-size="12">6</text>
<text x="114" y="575" fill="rgb(0,0,0)" font-family="Arial" font-size="12">7</text>
<rect width="14" height="520" x="124" y="40" style="fill:rgb(230,230,230);stroke:none"/>
<text x="128" y="575" fill="rgb(0,0,0)" font-family="Arial" font-size="12">8</text>
<text x="142" y="575" fill="rgb(0,0,0)" font-family="Arial" font-size="12">9</text>
<rect width="14" height="520" x="152" y="40" style="fill:rgb(230,230,230);stroke:none"/>
<text x="157" y="575" fill="rgb(0,0,0)" font-family="Arial" font-size="12">15-19</text>
<rect width="14" height="520" x="180" y="40" style="fill:rgb(230,230,230);stroke:none"/>
<rect width="14" height="520" x="208" y="40" style="fill:rgb(230,230,230);stroke:none"/>
<text x="199" y="575" fill="rgb(0,0,0)" font-family="Arial" font-size="12">30-34</text>
<rect width="14" height="520" x="236" y="40" style="fill:rgb(230,230,230);stroke:none"/>
<text x="241" y="575" fill="rgb(0,0,0)" font-family="Arial" font-size="12">45-49</text>
<rect width="14" height="520" x="264" y="40" style="fill:rgb(230,230,230);stroke:none"/>
<rect width="14" height="520" x="292" y="40" style="fill:rgb(230,230,230);stroke:none"/>
<text x="283" y="575" fill="rgb(0,0,0)" font-family="Arial" font-size="12">60-64</text>
<rect width="14" height="520" x="320" y="40" style="fill:rgb(230,230,230);stroke:none"/>
<text x="325" y="575" fill="rgb(0,0,0)" font-family="Arial" font-size="12">75-79</text>
<rect width="14" height="520" x="348" y="40" style="fill:rgb(230,230,230);stroke:none"/>
<rect width="14" height="520" x="376" y="40" style="fill:rgb(230,230,230);stroke:none"/>
<text x="367" y="575" fill="rgb(0,0,0)" font-family="Arial" font-size="12">90-94</text>
<rect width="14" height="520" x="404" y="40" style="fill:rgb(230,230,230);stroke:none"/>
<rect width="14" height="520" x="432" y="40" style="fill:rgb(230,230,230);stroke:none"/>
<text x="416" y="575" fill="rgb(0,0,0)" font-family="Arial" font-size="12">110-114</text>
<rect width="14" height="520" x="460" y="40" style="fill:rgb(230,230,230);stroke:none"/>
<rect width="14" height="520" x="488" y="40" style="fill:rgb(230,230,230);stroke:none"/>
<text x="472" y="575" fill="rgb(0,0,0)" font-family="Arial" font-size="12">130-134</text>
<rect width="14" height="520" x="516" y="40" style="fill:rgb(230,230,230);stroke:none"/>
<rect width="14" height="520" x="544" y="40" style="fill:rgb(230,230,230);stroke:none"/>
<text x="528" y="575" fill="rgb(0,0,0)" font-family="Arial" font-size="12">150-154</text>
<rect width="14" height="520" x="572" y="40" style="fill:rgb(230,230,230);stroke:none"/>
<rect width="14" height="520" x="600" y="40" style="fill:rgb(230,230,230);stroke:none"/>
<text x="584" y="575" fill="rgb(0,0,0)" font-family="Arial" font-size="12">170-174</text>
<rect width="14" height="520" x="628" y="40" style="fill:rgb(230,230,230);stroke:none"/>
<rect width="14" height="520" x="656" y="40" style="fill:rgb(230,230,230);stroke:none"/>
<text x="640" y="575" fill="rgb(0,0,0)" font-family="Arial" font-size="12">190-194</text>
<rect width="14" height="520" x="684" y="40" style="fill:rgb(230,230,230);stroke:none"/>
<rect width="14" height="520" x="712" y="40" style="fill:rgb(230,230,230);stroke:none"/>
<text x="696" y="575" fill="rgb(0,0,0)" font-family="Arial" font-size="12">210-214</text>
<rect width="14" height="520" x="740" y="40" style="fill:rgb(230,230,230);stroke:none"/>
<rect width="14" height="520" x="768" y="40" style="fill:rgb(230,230,230);stroke:none"/>
<text x="752" y="575" fill="rgb(0,0,0)" font-family="Arial" font-size="12">230-234</text>
<rect width="14" height="520" x="796" y="40" style="fill:rgb(230,230,230);stroke:none"/>
<text x="807" y="575" fill="rgb(0,0,0)" font-family="Arial" font-size="12">245</text>
<line x1="26" y1="560" x2="845" y2="560" stroke="rgb(180,180,180)" stroke-width="1"/>
<line x1="26" y1="470" x2="845" y2="470" stroke="rgb(180,180,180)" stroke-width="1"/>
<line x1="26" y1="379" x2="845" y2="379" stroke="rgb(180,180,180)" stroke-width="1"/>
<line x1="26" y1="288" x2="845" y2="288" stroke="rgb(180,180,180)" stroke-width="1"/>
<line x1="26" y1="197" x2="845" y2="197" stroke="rgb(180,180,180)" stroke-width="1"/>
<line x1="26" y1="107" x2="845" y2="107" stroke="rgb(180,180,180)" stroke-width="1"/>
<line x1="33" y1="40" x2="47" y2="560" stroke="rgb(136,34,85)" stroke-width="1"/>
<line x1="47" y1="560" x2="61" y2="560" stroke="rgb(136,34,85)" stroke-width="1"/>
<line x1="61" y1="560" x2="75" y2="560" stroke="rgb(136,34,85)" stroke-width="1"/>
<line x1="75" y1="560" x2="89" y2="560" stroke="rgb(136,34,85)" stroke-width="1"/>
<line x1="89" y1="560" x2="103" y2="560" stroke="rgb(136,34,85)" stroke-width="1"/>
<line x1="103" y1="560" x2="117" y2="560" stroke="rgb(136,34,85)" stroke-width="1"/>
<line x1="117" y1="560" x2="131" y2="560" stroke="rgb(136,34,85)" stroke-width="1"/>
<line x1="131" y1="560" x2="145" y2="560" stroke="rgb(136,34,85)" stroke-width="1"/>
<line x1="145" y1="560" x2="159" y2="560" stroke="rgb(136,34,85)" stroke-width="1"/>
<line x1="159" y1="560" x2="173" y2="560" stroke="rgb(136,34,85)" stroke-width="1"/>
<line x1="173" y1="560" x2="187" y2="560" stroke="rgb(136,34,85)" stroke-width="1"/>
<line x1="187" y1="560" x2="201" y2="560" stroke="rgb(136,34,85)" stroke-width="1"/>
<line x1="201" y1="560" x2="215" y2="560" stroke="rgb(136,34,85)" stroke-width="1"/>
<line x1="215" y1="560" x2="229" y2="560" stroke="rgb(136,34,85)" stroke-width="1"/>
<line x1="229" y1="560" x2="243" y2="560" stroke="rgb(136,34,85)" stroke-width="1"/>
<line x1="243" y1="560" x2="257" y2="560" stroke="rgb(136,34,85)" stroke-width="1"/>
<line x1="257" y1="560" x2="271" y2="560" stroke="rgb(136,34,85)" stroke-width="1"/>
<line x1="271" y1="560" x2="285" y2="526" stroke="rgb(136,34,85)" stroke-width="1"/>
<line x1="285" y1="526" x2="299" y2="560" stroke="rgb(136,34,85)" stroke-width="1"/>
<line x1="299" y1="560" x2="313" y2="560" stroke="rgb(136,34,85)" stroke-width="1"/>
<line x1="313" y1="560" x2="327" y2="560" stroke="rgb(136,34,85)" stroke-width="1"/>
<line x1="327" y1="560" x2="341" y2="560" stroke="rgb(136,34,85)" stroke-width="1"/>
<line x1="341" y1="560" x2="355" y2="560" stroke="rgb(136,34,85)" stroke-width="1"/>
<line x1="355" y1="560" x2="369" y2="560" stroke="rgb(136,34,85)" stroke-width="1"/>
<line x1="369" y1="560" x2="383" y2="560" stroke="rgb(136,34,85)" stroke-width="1"/>
<line x1="383" y1="560" x2="397" y2="560" stroke="rgb(136,34,85)" stroke-width="1"/>
<line x1="397" y1="560" x2="411" y2="560" stroke="rgb(136,34,85)" stroke-width="1"/>
<line x1="411" y1="560" x2="425" y2="560" stroke="rgb(136,34,85)" stroke-width="1"/>
<line x1="425" y1="560" x2="439" y2="560" stroke="rgb(136,34,85)" stroke-width="1"/>
<line x1="439" y1="560" x2="453" y2="560" stroke="rgb(136,34,85)" stroke-width="1"/>
<line x1="453" y1="560" x2="467" y2="560" stroke="rgb(136,34,85)" stroke-width="1"/>
<line x1="467" y1="560" x2="481" y2="560" stroke="rgb(136,34,85)" stroke-width="1"/>
<line x1="481" y1="560" x2="495" y2="525" stroke="rgb(136,34,85)" stroke-width="1"/>
<line x1="495" y1="525" x2="509" y2="560" stroke="rgb(136,34,85)" stroke-width="1"/>
<line x1="509" y1="560" x2="523" y2="560" stroke="rgb(136,34,85)" stroke-width="1"/>
<line x1="523" y1="560" x2="537" y2="560" stroke="rgb(136,34,85)" stroke-width="1"/>
<line x1="537" y1="560" x2="551" y2="560" stroke="rgb(136,34,85)" stroke-width="1"/>
<line x1="551" y1="560" x2="565" y2="560" stroke="rgb(136,34,85)" stroke-width="1"/>
<line x1="565" y1="560" x2="579" y2="560" stroke="rgb(136,34,85)" stroke-width="1"/>
<line x1="579" y1="560" x2="593" y2="560" stroke="rgb(136,34,85)" stroke-width="1"/>
<line x1="593" y1="560" x2="607" y2="560" stroke="rgb(136,34,85)" stroke-width="1"/>
<line x1="607" y1="560" x2="621" y2="560" stroke="rgb(136,34,85)" stroke-width="1"/>
<line x1="621" y1="560" x2="635" y2="560" stroke="rgb(136,34,85)" stroke-width="1"/>
<line x1="635" y1="560" x2="649" y2="560" stroke="rgb(136,34,85)" stroke-width="1"/>
<line x1="649" y1="560" x2="663" y2="560" stroke="rgb(136,34,85)" stroke-width="1"/>
<line x1="663" y1="560" x2="677" y2="560" stroke="rgb(136,34,85)" stroke-width="1"/>
<line x1="677" y1="560" x2="691" y2="520" stroke="rgb(136,34,85)" stroke-width="1"/>
<line x1="691" y1="520" x2="705" y2="560" stroke="rgb(136,34,85)" stroke-width="1"/>
<line x1="705" y1="560" x2="719" y2="560" stroke="rgb(136,34,85)" stroke-width="1"/>
<line x1="719" y1="560" x2="733" y2="560" stroke="rgb(136,34,85)" stroke-width="1"/>
<line x1="733" y1="560" x2="747" y2="560" stroke="rgb(136,34,85)" stroke-width="1"/>
<line x1="747" y1="560" x2="761" y2="560" stroke="rgb(136,34,85)" stroke-width="1"/>
<line x1="761" y1="560" x2="775" y2="560" stroke="rgb(136,34,85)" stroke-width="1"/>
<line x1="775" y1="560" x2="789" y2="560" stroke="rgb(136,34,85)" stroke-width="1"/>
<line x1="789" y1="560" x2="803" y2="560" stroke="rgb(136,34,85)" stroke-width="1"/>
<line x1="803" y1="560" x2="817" y2="560" stroke="rgb(136,34,85)" stroke-width="1"/>
<line x1="33" y1="115" x2="47" y2="560" stroke="rgb(51,34,136)" stroke-width="1"/>
<line x1="47" y1="560" x2="61" y2="560" stroke="rgb(51,34,136)" stroke-width="1"/>
<line x1="61" y1="560" x2="75" y2="560" stroke="rgb(51,34,136)" stroke-width="1"/>
<line x1="75" y1="560" x2="89" y2="560" stroke="rgb(51,34,136)" stroke-width="1"/>
<line x1="89" y1="560" x2="103" y2="560" stroke="rgb(51,34,136)" stroke-width="1"/>
<line x1="103" y1="560" x2="117" y2="560" stroke="rgb(51,34,136)" stroke-width="1"/>
<line x1="117" y1="560" x2="131" y2="560" stroke="rgb(51,34,136)" stroke-width="1"/>
<line x1="131" y1="560" x2="145" y2="560" stroke="rgb(51,34,136)" stroke-width="1"/>
<line x1="145" y1="560" x2="159" y2="560" stroke="rgb(51,34,136)" stroke-width="1"/>
<line x1="159" y1="560" x2="173" y2="560" stroke="rgb(51,34,136)" stroke-width="1"/>
<line x1="173" y1="560" x2="187" y2="560" stroke="rgb(51,34,136)" stroke-width="1"/>
<line x1="187" y1="560" x2="201" y2="560" stroke="rgb(51,34,136)" stroke-width="1"/>
<line x1="201" y1="560" x2="215" y2="560" stroke="rgb(51,34,136)" stroke-width="1"/>
<line x1="215" y1="560" x2="229" y2="560" stroke="rgb(51,34,136)" stroke-width="1"/>
<line x1="229" y1="560" x2="243" y2="560" stroke="rgb(51,34,136)" stroke-width="1"/>
<line x1="243" y1="560" x2="257" y2="560" stroke="rgb(51,34,136)" stroke-width="1"/>
<line x1="257" y1="560" x2="271" y2="531" stroke="rgb(51,34,136)" stroke-width="1"/>
<line x1="271" y1="531" x2="285" y2="560" stroke="rgb(51,34,136)" stroke-width="1"/>
<line x1="285" y1="560" x2="299" y2="560" stroke="rgb(51,34,136)" stroke-width="1"/>
<line x1="299" y1="560" x2="313" y2="560" stroke="rgb(51,34,136)" stroke-width="1"/>
<line x1="313" y1="560" x2="327" y2="560" stroke="rgb(51,34,136)" stroke-width="1"/>
<line x1="327" y1="560" x2="341" y2="560" stroke="rgb(51,34,136)" stroke-width="1"/>
<line x1="341" y1="560" x2="355" y2="560" stroke="rgb(51,34,136)" stroke-width="1"/>
<line x1="355" y1="560" x2="369" y2="560" stroke="rgb(51,34,136)" stroke-width="1"/>
<line x1="369" y1="560" x2="383" y2="560" stroke="rgb(51,34,136)" stroke-width="1"/>
<line x1="383" y1="560" x2="397" y2="560" stroke="rgb(51,34,136)" stroke-width="1"/>
<line x1="397" y1="560" x2="411" y2="560" stroke="rgb(51,34,136)" stroke-width="1"/>
<line x1="411" y1="560" x2="425" y2="560" stroke="rgb(51,34,136)" stroke-width="1"/>
<line x1="425" y1="560" x2="439" y2="560" stroke="rgb(51,34,136)" stroke-width="1"/>
<line x1="439" y1="560" x2="453" y2="560" stroke="rgb(51,34,136)" stroke-width="1"/>
<line x1="453" y1="560" x2="467" y2="560" stroke="rgb(51,34,136)" stroke-width="1"/>
<line x1="467" y1="560" x2="481" y2="560" stroke="rgb(51,34,136)" stroke-width="1"/>
<line x1="481" y1="560" x2="495" y2="530" stroke="rgb(51,34,136)" stroke-width="1"/>
<line x1="495" y1="530" x2="509" y2="560" stroke="rgb(51,34,136)" stroke-width="1"/>
<line x1="509" y1="560" x2="523" y2="560" stroke="rgb(51,34,136)" stroke-width="1"/>
<line x1="523" y1="560" x2="537" y2="560" stroke="rgb(51,34,136)" stroke-width="1"/>
<line x1="537" y1="560" x2="551" y2="560" stroke="rgb(51,34,136)" stroke-width="1"/>
<line x1="551" y1="560" x2="565" y2="560" stroke="rgb(51,34,136)" stroke-width="1"/>
<line x1="565" y1="560" x2="579" y2="560" stroke="rgb(51,34,136)" stroke-width="1"/>
<line x1="579" y1="560" x2="593" y2="560" stroke="rgb(51,34,136)" stroke-width="1"/>
<line x1="593" y1="560" x2="607" y2="560" stroke="rgb(51,34,136)" stroke-width="1"/>
<line x1="607" y1="560" x2="621" y2="560" stroke="rgb(51,34,136)" stroke-width="1"/>
<line x1="621" y1="560" x2="635" y2="527" stroke="rgb(51,34,136)" stroke-width="1"/>
<line x1="635" y1="527" x2="649" y2="560" stroke="rgb(51,34,136)" stroke-width="1"/>
<line x1="649" y1="560" x2="663" y2="560" stroke="rgb(51,34,136)" stroke-width="1"/>
<line x1="663" y1="560" x2="677" y2="560" stroke="rgb(51,34,136)" stroke-width="1"/>
<line x1="677" y1="560" x2="691" y2="560" stroke="rgb(51,34,136)" stroke-width="1"/>
<line x1="691" y1="560" x2="705" y2="560" stroke="rgb(51,34,136)" stroke-width="1"/>
<line x1="705" y1="560" x2="719" y2="560" stroke="rgb(51,34,136)" stroke-width="1"/>
<line x1="719" y1="560" x2="733" y2="525" stroke="rgb(51,34,136)" stroke-width="1"/>
<line x1="733" y1="525" x2="747" y2="560" stroke="rgb(51,34,136)" stroke-width="1"/>
<line x1="747" y1="560" x2="761" y2="560" stroke="rgb(51,34,136)" stroke-width="1"/>
<line x1="761" y1="560" x2="775" y2="560" stroke="rgb(51,34,136)" stroke-width="1"/>
<line x1="775" y1="560" x2="789" y2="560" stroke="rgb(51,34,136)" stroke-width="1"/>
<line x1="789" y1="560" x2="803" y2="560" stroke="rgb(51,34,136)" stroke-width="1"/>
<line x1="803" y1="560" x2="817" y2="560" stroke="rgb(51,34,136)" stroke-width="1"/>
<line x1="33" y1="491" x2="47" y2="283" stroke="rgb(17,119,51)" stroke-width="1"/>
<line x1="47" y1="283" x2="61" y2="560" stroke="rgb(17,119,51)" stroke-width="1"/>
<line x1="61" y1="560" x2="75" y2="560" stroke="rgb(17,119,51)" stroke-width="1"/>
<line x1="75" y1="560" x2="89" y2="560" stroke="rgb(17,119,51)" stroke-width="1"/>
<line x1="89" y1="560" x2="103" y2="560" stroke="rgb(17,119,51)" stroke-width="1"/>
<line x1="103" y1="560" x2="117" y2="560" stroke="rgb(17,119,51)" stroke-width="1"/>
<line x1="117" y1="560" x2="131" y2="560" stroke="rgb(17,119,51)" stroke-width="1"/>
<line x1="131" y1="560" x2="145" y2="560" stroke="rgb(17,119,51)" stroke-width="1"/>
<line x1="145" y1="560" x2="159" y2="547" stroke="rgb(17,119,51)" stroke-width="1"/>
<line x1="159" y1="547" x2="173" y2="560" stroke="rgb(17,119,51)" stroke-width="1"/>
<line x1="173" y1="560" x2="187" y2="560" stroke="rgb(17,119,51)" stroke-width="1"/>
<line x1="187" y1="560" x2="201" y2="560" stroke="rgb(17,119,51)" stroke-width="1"/>
<line x1="201" y1="560" x2="215" y2="560" stroke="rgb(17,119,51)" stroke-width="1"/>
<line x1="215" y1="560" x2="229" y2="560" stroke="rgb(17,119,51)" stroke-width="1"/>
<line x1="229" y1="560" x2="243" y2="560" stroke="rgb(17,119,51)" stroke-width="1"/>
<line x1="243" y1="560" x2="257" y2="560" stroke="rgb(17,119,51)" stroke-width="1"/>
<line x1="257" y1="560" x2="271" y2="560" stroke="rgb(17,119,51)" stroke-width="1"/>
<line x1="271" y1="560" x2="285" y2="560" stroke="rgb(17,119,51)" stroke-width="1"/>
<line x1="285" y1="560" x2="299" y2="560" stroke="rgb(17,119,51)" stroke-width="1"/>
<line x1="299" y1="560" x2="313" y2="560" stroke="rgb(17,119,51)" stroke-width="1"/>
<line x1="313" y1="560" x2="327" y2="547" stroke="rgb(17,119,51)" stroke-width="1"/>
<line x1="327" y1="547" x2="341" y2="560" stroke="rgb(17,119,51)" stroke-width="1"/>
<line x1="341" y1="560" x2="355" y2="546" stroke="rgb(17,119,51)" stroke-width="1"/>
<line x1="355" y1="546" x2="369" y2="560" stroke="rgb(17,119,51)" stroke-width="1"/>
<line x1="369" y1="560" x2="383" y2="532" stroke="rgb(17,119,51)" stroke-width="1"/>
<line x1="383" y1="532" x2="397" y2="560" stroke="rgb(17,119,51)" stroke-width="1"/>
<line x1="397" y1="560" x2="411" y2="546" stroke="rgb(17,119,51)" stroke-width="1"/>
<line x1="411" y1="546" x2="425" y2="546" stroke="rgb(17,119,51)" stroke-width="1"/>
<line x1="425" y1="546" x2="439" y2="560" stroke="rgb(17,119,51)" stroke-width="1"/>
<line x1="439" y1="560" x2="453" y2="560" stroke="rgb(17,119,51)" stroke-width="1"/>
<line x1="453" y1="560" x2="467" y2="560" stroke="rgb(17,119,51)" stroke-width="1"/>
<line x1="467" y1="560" x2="481" y2="546" stroke="rgb(17,119,51)" stroke-width="1"/>
<line x1="481" y1="546" x2="495" y2="560" stroke="rgb(17,119,51)" stroke-width="1"/>
<line x1="495" y1="560" x2="509" y2="560" stroke="rgb(17,119,51)" stroke-width="1"/>
<line x1="509" y1="560" x2="523" y2="560" stroke="rgb(17,119,51)" stroke-width="1"/>
<line x1="523" y1="560" x2="537" y2="560" stroke="rgb(17,119,51)" stroke-width="1"/>
<line x1="537" y1="560" x2="551" y2="560" stroke="rgb(17,119,51)" stroke-width="1"/>
<line x1="551" y1="560" x2="565" y2="560" stroke="rgb(17,119,51)" stroke-width="1"/>
<line x1="565" y1="560" x2="579" y2="560" stroke="rgb(17,119,51)" stroke-width="1"/>
<line x1="579" y1="560" x2="593" y2="560" stroke="rgb(17,119,51)" stroke-width="1"/>
<line x1="593" y1="560" x2="607" y2="560" stroke="rgb(17,119,51)" stroke-width="1"/>
<line x1="607" y1="560" x2="621" y2="560" stroke="rgb(17,119,51)" stroke-width="1"/>
<line x1="621" y1="560" x2="635" y2="560" stroke="rgb(17,119,51)" stroke-width="1"/>
<line x1="635" y1="560" x2="649" y2="560" stroke="rgb(17,119,51)" stroke-width="1"/>
<line x1="649" y1="560" x2="663" y2="560" stroke="rgb(17,119,51)" stroke-width="1"/>
<line x1="663" y1="560" x2="677" y2="560" stroke="rgb(17,119,51)" stroke-width="1"/>
<line x1="677" y1="560" x2="691" y2="544" stroke="rgb(17,119,51)" stroke-width="1"/>
<line x1="691" y1="544" x2="705" y2="560" stroke="rgb(17,119,51)" stroke-width="1"/>
<line x1="705" y1="560" x2="719" y2="560" stroke="rgb(17,119,51)" stroke-width="1"/>
<line x1="719" y1="560" x2="733" y2="560" stroke="rgb(17,119,51)" stroke-width="1"/>
<line x1="733" y1="560" x2="747" y2="543" stroke="rgb(17,119,51)" stroke-width="1"/>
<line x1="747" y1="543" x2="761" y2="560" stroke="rgb(17,119,51)" stroke-width="1"/>
<line x1="761" y1="560" x2="775" y2="560" stroke="rgb(17,119,51)" stroke-width="1"/>
<line x1="775" y1="560" x2="789" y2="560" stroke="rgb(17,119,51)" stroke-width="1"/>
<line x1="789" y1="560" x2="803" y2="560" stroke="rgb(17,119,51)" stroke-width="1"/>
<line x1="803" y1="560" x2="817" y2="560" stroke="rgb(17,119,51)" stroke-width="1"/>
<line x1="33" y1="338" x2="47" y2="560" stroke="rgb(221,204,119)" stroke-width="1"/>
<line x1="47" y1="560" x2="61" y2="486" stroke="rgb(221,204,119)" stroke-width="1"/>
<line x1="61" y1="486" x2="75" y2="560" stroke="rgb(221,204,119)" stroke-width="1"/>
<line x1="75" y1="560" x2="89" y2="560" stroke="rgb(221,204,119)" stroke-width="1"/>
<line x1="89" y1="560" x2="103" y2="560" stroke="rgb(221,204,119)" stroke-width="1"/>
<line x1="103" y1="560" x2="117" y2="560" stroke="rgb(221,204,119)" stroke-width="1"/>
<line x1="117" y1="560" x2="131" y2="560" stroke="rgb(221,204,119)" stroke-width="1"/>
<line x1="131" y1="560" x2="145" y2="560" stroke="rgb(221,204,119)" stroke-width="1"/>
<line x1="145" y1="560" x2="159" y2="560" stroke="rgb(221,204,119)" stroke-width="1"/>
<line x1="159" y1="560" x2="173" y2="560" stroke="rgb(221,204,119)" stroke-width="1"/>
<line x1="173" y1="560" x2="187" y2="560" stroke="rgb(221,204,119)" stroke-width="1"/>
<line x1="187" y1="560" x2="201" y2="560" stroke="rgb(221,204,119)" stroke-width="1"/>
<line x1="201" y1="560" x2="215" y2="560" stroke="rgb(221,204,119)" stroke-width="1"/>
<line x1="215" y1="560" x2="229" y2="560" stroke="rgb(221,204,119)" stroke-width="1"/>
<line x1="229" y1="560" x2="243" y2="560" stroke="rgb(221,204,119)" stroke-width="1"/>
<line x1="243" y1="560" x2="257" y2="560" stroke="rgb(221,204,119)" stroke-width="1"/>
<line x1="257" y1="560" x2="271" y2="531" stroke="rgb(221,204,119)" stroke-width="1"/>
<line x1="271" y1="531" x2="285" y2="531" stroke="rgb(221,204,119)" stroke-width="1"/>
<line x1="285" y1="531" x2="299" y2="560" stroke="rgb(221,204,119)" stroke-width="1"/>
<line x1="299" y1="560" x2="313" y2="560" stroke="rgb(221,204,119)" stroke-width="1"/>
<line x1="313" y1="560" x2="327" y2="560" stroke="rgb(221,204,119)" stroke-width="1"/>
<line x1="327" y1="560" x2="341" y2="546" stroke="rgb(221,204,119)" stroke-width="1"/>
<line x1="341" y1="546" x2="355" y2="560" stroke="rgb(221,204,119)" stroke-width="1"/>
<line x1="355" y1="560" x2="369" y2="560" stroke="rgb(221,204,119)" stroke-width="1"/>
<line x1="369" y1="560" x2="383" y2="560" stroke="rgb(221,204,119)" stroke-width="1"/>
<line x1="383" y1="560" x2="397" y2="560" stroke="rgb(221,204,119)" stroke-width="1"/>
<line x1="397" y1="560" x2="411" y2="560" stroke="rgb(221,204,119)" stroke-width="1"/>
<line x1="411" y1="560" x2="425" y2="560" stroke="rgb(221,204,119)" stroke-width="1"/>
<line x1="425" y1="560" x2="439" y2="545" stroke="rgb(221,204,119)" stroke-width="1"/>
<line x1="439" y1="545" x2="453" y2="560" stroke="rgb(221,204,119)" stroke-width="1"/>
<line x1="453" y1="560" x2="467" y2="560" stroke="rgb(221,204,119)" stroke-width="1"/>
<line x1="467" y1="560" x2="481" y2="560" stroke="rgb(221,204,119)" stroke-width="1"/>
<line x1="481" y1="560" x2="495" y2="560" stroke="rgb(221,204,119)" stroke-width="1"/>
<line x1="495" y1="560" x2="509" y2="560" stroke="rgb(221,204,119)" stroke-width="1"/>
<line x1="509" y1="560" x2="523" y2="545" stroke="rgb(221,204,119)" stroke-width="1"/>
<line x1="523" y1="545" x2="537" y2="560" stroke="rgb(221,204,119)" stroke-width="1"/>
<line x1="537" y1="560" x2="551" y2="560" stroke="rgb(221,204,119)" stroke-width="1"/>
<line x1="551" y1="560" x2="565" y2="560" stroke="rgb(221,204,119)" stroke-width="1"/>
<line x1="565" y1="560" x2="579" y2="560" stroke="rgb(221,204,119)" stroke-width="1"/>
<line x1="579" y1="560" x2="593" y2="560" stroke="rgb(221,204,119)" stroke-width="1"/>
<line x1="593" y1="560" x2="607" y2="544" stroke="rgb(221,204,119)" stroke-width="1"/>
<line x1="607" y1="544" x2="621" y2="544" stroke="rgb(221,204,119)" stroke-width="1"/>
<line x1="621" y1="544" x2="635" y2="560" stroke="rgb(221,204,119)" stroke-width="1"/>
<line x1="635" y1="560" x2="649" y2="560" stroke="rgb(221,204,119)" stroke-width="1"/>
<line x1="649" y1="560" x2="663" y2="560" stroke="rgb(221,204,119)" stroke-width="1"/>
<line x1="663" y1="560" x2="677" y2="560" stroke="rgb(221,204,119)" stroke-width="1"/>
<line x1="677" y1="560" x2="691" y2="560" stroke="rgb(221,204,119)" stroke-width="1"/>
<line x1="691" y1="560" x2="705" y2="560" stroke="rgb(221,204,119)" stroke-width="1"/>
<line x1="705" y1="560" x2="719" y2="560" stroke="rgb(221,204,119)" stroke-width="1"/>
<line x1="719" y1="560" x2="733" y2="543" stroke="rgb(221,204,119)" stroke-width="1"/>
<line x1="733" y1="543" x2="747" y2="560" stroke="rgb(221,204,119)" stroke-width="1"/>
<line x1="747" y1="560" x2="761" y2="560" stroke="rgb(221,204,119)" stroke-width="1"/>
<line x1="761" y1="560" x2="775" y2="560" stroke="rgb(221,204,119)" stroke-width="1"/>
<line x1="775" y1="560" x2="789" y2="560" stroke="rgb(221,204,119)" stroke-width="1"/>
<line x1="789" y1="560" x2="803" y2="560" stroke="rgb(221,204,119)" stroke-width="1"/>
<line x1="803" y1="560" x2="817" y2="560" stroke="rgb(221,204,119)" stroke-width="1"/>
<line x1="33" y1="338" x2="47" y2="560" stroke="rgb(68,170,153)" stroke-width="1"/>
<line x1="47" y1="560" x2="61" y2="560" stroke="rgb(68,170,153)" stroke-width="1"/>
<line x1="61" y1="560" x2="75" y2="560" stroke="rgb(68,170,153)" stroke-width="1"/>
<line x1="75" y1="560" x2="89" y2="560" stroke="rgb(68,170,153)" stroke-width="1"/>
<line x1="89" y1="560" x2="103" y2="560" stroke="rgb(68,170,153)" stroke-width="1"/>
<line x1="103" y1="560" x2="117" y2="560" stroke="rgb(68,170,153)" stroke-width="1"/>
<line x1="117" y1="560" x2="131" y2="560" stroke="rgb(68,170,153)" stroke-width="1"/>
<line x1="131" y1="560" x2="145" y2="560" stroke="rgb(68,170,153)" stroke-width="1"/>
<line x1="145" y1="560" x2="159" y2="546" stroke="rgb(68,170,153)" stroke-width="1"/>
<line x1="159" y1="546" x2="173" y2="560" stroke="rgb(68,170,153)" stroke-width="1"/>
<line x1="173" y1="560" x2="187" y2="560" stroke="rgb(68,170,153)" stroke-width="1"/>
<line x1="187" y1="560" x2="201" y2="560" stroke="rgb(68,170,153)" stroke-width="1"/>
<line x1="201" y1="560" x2="215" y2="560" stroke="rgb(68,170,153)" stroke-width="1"/>
<line x1="215" y1="560" x2="229" y2="560" stroke="rgb(68,170,153)" stroke-width="1"/>
<line x1="229" y1="560" x2="243" y2="560" stroke="rgb(68,170,153)" stroke-width="1"/>
<line x1="243" y1="560" x2="257" y2="546" stroke="rgb(68,170,153)" stroke-width="1"/>
<line x1="257" y1="546" x2="271" y2="560" stroke="rgb(68,170,153)" stroke-width="1"/>
<line x1="271" y1="560" x2="285" y2="546" stroke="rgb(68,170,153)" stroke-width="1"/>
<line x1="285" y1="546" x2="299" y2="546" stroke="rgb(68,170,153)" stroke-width="1"/>
<line x1="299" y1="546" x2="313" y2="560" stroke="rgb(68,170,153)" stroke-width="1"/>
<line x1="313" y1="560" x2="327" y2="560" stroke="rgb(68,170,153)" stroke-width="1"/>
<line x1="327" y1="560" x2="341" y2="546" stroke="rgb(68,170,153)" stroke-width="1"/>
<line x1="341" y1="546" x2="355" y2="560" stroke="rgb(68,170,153)" stroke-width="1"/>
<line x1="355" y1="560" x2="369" y2="560" stroke="rgb(68,170,153)" stroke-width="1"/>
<line x1="369" y1="560" x2="383" y2="560" stroke="rgb(68,170,153)" stroke-width="1"/>
<line x1="383" y1="560" x2="397" y2="560" stroke="rgb(68,170,153)" stroke-width="1"/>
<line x1="397" y1="560" x2="411" y2="560" stroke="rgb(68,170,153)" stroke-width="1"/>
<line x1="411" y1="560" x2="425" y2="560" stroke="rgb(68,170,153)" stroke-width="1"/>
<line x1="425" y1="560" x2="439" y2="560" stroke="rgb(68,170,153)" stroke-width="1"/>
<line x1="439" y1="560" x2="453" y2="560" stroke="rgb(68,170,153)" stroke-width="1"/>
<line x1="453" y1="560" x2="467" y2="560" stroke="rgb(68,170,153)" stroke-width="1"/>
<line x1="467" y1="560" x2="481" y2="545" stroke="rgb(68,170,153)" stroke-width="1"/>
<line x1="481" y1="545" x2="495" y2="560" stroke="rgb(68,170,153)" stroke-width="1"/>
<line x1="495" y1="560" x2="509" y2="560" stroke="rgb(68,170,153)" stroke-width="1"/>
<line x1="509" y1="560" x2="523" y2="560" stroke="rgb(68,170,153)" stroke-width="1"/>
<line x1="523" y1="560" x2="537" y2="545" stroke="rgb(68,170,153)" stroke-width="1"/>
<line x1="537" y1="545" x2="551" y2="560" stroke="rgb(68,170,153)" stroke-width="1"/>
<line x1="551" y1="560" x2="565" y2="560" stroke="rgb(68,170,153)" stroke-width="1"/>
<line x1="565" y1="560" x2="579" y2="545" stroke="rgb(68,170,153)" stroke-width="1"/>
<line x1="579" y1="545" x2="593" y2="560" stroke="rgb(68,170,153)" stroke-width="1"/>
<line x1="593" y1="560" x2="607" y2="560" stroke="rgb(68,170,153)" stroke-width="1"/>
<line x1="607" y1="560" x2="621" y2="560" stroke="rgb(68,170,153)" stroke-width="1"/>
<line x1="621" y1="560" x2="635" y2="560" stroke="rgb(68,170,153)" stroke-width="1"/>
<line x1="635" y1="560" x2="649" y2="544" stroke="rgb(68,170,153)" stroke-width="1"/>
<line x1="649" y1="544" x2="663" y2="560" stroke="rgb(68,170,153)" stroke-width="1"/>
<line x1="663" y1="560" x2="677" y2="560" stroke="rgb(68,170,153)" stroke-width="1"/>
<line x1="677" y1="560" x2="691" y2="543" stroke="rgb(68,170,153)" stroke-width="1"/>
<line x1="691" y1="543" x2="705" y2="560" stroke="rgb(68,170,153)" stroke-width="1"/>
<line x1="705" y1="560" x2="719" y2="560" stroke="rgb(68,170,153)" stroke-width="1"/>
<line x1="719" y1="560" x2="733" y2="560" stroke="rgb(68,170,153)" stroke-width="1"/>
<line x1="733" y1="560" x2="747" y2="560" stroke="rgb(68,170,153)" stroke-width="1"/>
<line x1="747" y1="560" x2="761" y2="560" stroke="rgb(68,170,153)" stroke-width="1"/>
<line x1="761" y1="560" x2="775" y2="560" stroke="rgb(68,170,153)" stroke-width="1"/>
<line x1="775" y1="560" x2="789" y2="560" stroke="rgb(68,170,153)" stroke-width="1"/>
<line x1="789" y1="560" x2="803" y2="512" stroke="rgb(68,170,153)" stroke-width="1"/>
<line x1="803" y1="512" x2="817" y2="560" stroke="rgb(68,170,153)" stroke-width="1"/>
<line x1="33" y1="517" x2="47" y2="387" stroke="rgb(170,68,153)" stroke-width="1"/>
<line x1="47" y1="387" x2="61" y2="517" stroke="rgb(170,68,153)" stroke-width="1"/>
<line x1="61" y1="517" x2="75" y2="560" stroke="rgb(170,68,153)" stroke-width="1"/>
<line x1="75" y1="560" x2="89" y2="560" stroke="rgb(170,68,153)" stroke-width="1"/>
<line x1="89" y1="560" x2="103" y2="560" stroke="rgb(170,68,153)" stroke-width="1"/>
<line x1="103" y1="560" x2="117" y2="560" stroke="rgb(170,68,153)" stroke-width="1"/>
<line x1="117" y1="560" x2="131" y2="560" stroke="rgb(170,68,153)" stroke-width="1"/>
<line x1="131" y1="560" x2="145" y2="560" stroke="rgb(170,68,153)" stroke-width="1"/>
<line x1="145" y1="560" x2="159" y2="552" stroke="rgb(170,68,153)" stroke-width="1"/>
<line x1="159" y1="552" x2="173" y2="560" stroke="rgb(170,68,153)" stroke-width="1"/>
<line x1="173" y1="560" x2="187" y2="552" stroke="rgb(170,68,153)" stroke-width="1"/>
<line x1="187" y1="552" x2="201" y2="560" stroke="rgb(170,68,153)" stroke-width="1"/>
<line x1="201" y1="560" x2="215" y2="560" stroke="rgb(170,68,153)" stroke-width="1"/>
<line x1="215" y1="560" x2="229" y2="560" stroke="rgb(170,68,153)" stroke-width="1"/>
<line x1="229" y1="560" x2="243" y2="552" stroke="rgb(170,68,153)" stroke-width="1"/>
<line x1="243" y1="552" x2="257" y2="552" stroke="rgb(170,68,153)" stroke-width="1"/>
<line x1="257" y1="552" x2="271" y2="552" stroke="rgb(170,68,153)" stroke-width="1"/>
<line x1="271" y1="552" x2="285" y2="560" stroke="rgb(170,68,153)" stroke-width="1"/>
<line x1="285" y1="560" x2="299" y2="560" stroke="rgb(170,68,153)" stroke-width="1"/>
<line x1="299" y1="560" x2="313" y2="552" stroke="rgb(170,68,153)" stroke-width="1"/>
<line x1="313" y1="552" x2="327" y2="560" stroke="rgb(170,68,153)" stroke-width="1"/>
<line x1="327" y1="560" x2="341" y2="560" stroke="rgb(170,68,153)" stroke-width="1"/>
<line x1="341" y1="560" x2="355" y2="552" stroke="rgb(170,68,153)" stroke-width="1"/>
<line x1="355" y1="552" x2="369" y2="560" stroke="rgb(170,68,153)" stroke-width="1"/>
<line x1="369" y1="560" x2="383" y2="552" stroke="rgb(170,68,153)" stroke-width="1"/>
<line x1="383" y1="552" x2="397" y2="560" stroke="rgb(170,68,153)" stroke-width="1"/>
<line x1="397" y1="560" x2="411" y2="552" stroke="rgb(170,68,153)" stroke-width="1"/>
<line x1="411" y1="552" x2="425" y2="560" stroke="rgb(170,68,153)" stroke-width="1"/>
<line x1="425" y1="560" x2="439" y2="552" stroke="rgb(170,68,153)" stroke-width="1"/>
<line x1="439" y1="552" x2="453" y2="560" stroke="rgb(170,68,153)" stroke-width="1"/>
<line x1="453" y1="560" x2="467" y2="560" stroke="rgb(170,68,153)" stroke-width="1"/>
<line x1="467" y1="560" x2="481" y2="560" stroke="rgb(170,68,153)" stroke-width="1"/>
<line x1="481" y1="560" x2="495" y2="552" stroke="rgb(170,68,153)" stroke-width="1"/>
<line x1="495" y1="552" x2="509" y2="542" stroke="rgb(170,68,153)" stroke-width="1"/>
<line x1="509" y1="542" x2="523" y2="560" stroke="rgb(170,68,153)" stroke-width="1"/>
<line x1="523" y1="560" x2="537" y2="551" stroke="rgb(170,68,153)" stroke-width="1"/>
<line x1="537" y1="551" x2="551" y2="560" stroke="rgb(170,68,153)" stroke-width="1"/>
<line x1="551" y1="560" x2="565" y2="551" stroke="rgb(170,68,153)" stroke-width="1"/>
<line x1="565" y1="551" x2="579" y2="560" stroke="rgb(170,68,153)" stroke-width="1"/>
<line x1="579" y1="560" x2="593" y2="560" stroke="rgb(170,68,153)" stroke-width="1"/>
<line x1="593" y1="560" x2="607" y2="560" stroke="rgb(170,68,153)" stroke-width="1"/>
<line x1="607" y1="560" x2="621" y2="560" stroke="rgb(170,68,153)" stroke-width="1"/>
<line x1="621" y1="560" x2="635" y2="551" stroke="rgb(170,68,153)" stroke-width="1"/>
<line x1="635" y1="551" x2="649" y2="560" stroke="rgb(170,68,153)" stroke-width="1"/>
<line x1="649" y1="560" x2="663" y2="560" stroke="rgb(170,68,153)" stroke-width="1"/>
<line x1="663" y1="560" x2="677" y2="560" stroke="rgb(170,68,153)" stroke-width="1"/>
<line x1="677" y1="560" x2="691" y2="550" stroke="rgb(170,68,153)" stroke-width="1"/>
<line x1="691" y1="550" x2="705" y2="560" stroke="rgb(170,68,153)" stroke-width="1"/>
<line x1="705" y1="560" x2="719" y2="560" stroke="rgb(170,68,153)" stroke-width="1"/>
<line x1="719" y1="560" x2="733" y2="560" stroke="rgb(170,68,153)" stroke-width="1"/>
<line x1="733" y1="560" x2="747" y2="560" stroke="rgb(170,68,153)" stroke-width="1"/>
<line x1="747" y1="560" x2="761" y2="560" stroke="rgb(170,68,153)" stroke-width="1"/>
<line x1="761" y1="560" x2="775" y2="560" stroke="rgb(170,68,153)" stroke-width="1"/>
<line x1="775" y1="560" x2="789" y2="549" stroke="rgb(170,68,153)" stroke-width="1"/>
<line x1="789" y1="549" x2="803" y2="560" stroke="rgb(170,68,153)" stroke-width="1"/>
<line x1="803" y1="560" x2="817" y2="560" stroke="rgb(170,68,153)" stroke-width="1"/>
<rect width="60" height="123" x="785" y="40" style="fill:rgb(255,255,255);stroke:none"/>
<rect width="60" height="123" x="785" y="40" rx="0" ry="0" style="fill:none;stroke-width:1;stroke:rgb(192,192,192)"/>
<text x="788" y="55" fill="rgb(136,34,85)" font-family="Arial" font-size="12" font-weight="bold">GAGTATA</text>
<text x="788" y="75" fill="rgb(51,34,136)" font-family="Arial" font-size="12" font-weight="bold">ATCTAAT</text>
<text x="788" y="95" fill="rgb(17,119,51)" font-family="Arial" font-size="12" font-weight="bold">TCGTATA</text>
<text x="788" y="115" fill="rgb(221,204,119)" font-family="Arial" font-size="12" font-weight="bold">GTGTAAT</text>
<text x="788" y="135" fill="rgb(68,170,153)" font-family="Arial" font-size="12" font-weight="bold">TCACTAG</text>
<text x="788" y="155" fill="rgb(170,68,153)" font-family="Arial" font-size="12" font-weight="bold">TATGGGT</text>
</svg>
