<?xml version="1.0" standalone="no"?>
<!DOCTYPE svg PUBLIC "-//W3C//DTD SVG 1.1//EN" "http://www.w3.org/Graphics/SVG/1.1/DTD/svg11.dtd">
<svg width="800" height="600" version="1.1" xmlns="http://www.w3.org/2000/svg">
<rect width="800" height="600" x="0" y="0" style="fill:rgb(238,238,238);stroke:none"/>
<rect width="800" height="600" x="0" y="0" style="fill:rgb(255,255,255);stroke:none"/>
<text x="2" y="566" fill="rgb(0,0,0)" font-family="Arial" font-size="12">0</text>
<text x="2" y="495" fill="rgb(0,0,0)" font-family="Arial" font-size="12">5000</text>
<text x="2" y="424" fill="rgb(0,0,0)" font-family="Arial" font-size="12">10000</text>
<text x="2" y="353" fill="rgb(0,0,0)" font-family="Arial" font-size="12">15000</text>
<text x="2" y="281" fill="rgb(0,0,0)" font-family="Arial" font-size="12">20000</text>
<text x="2" y="210" fill="rgb(0,0,0)" font-family="Arial" font-size="12">25000</text>
<text x="2" y="139" fill="rgb(0,0,0)" font-family="Arial" font-size="12">30000</text>
<text x="2" y="67" fill="rgb(0,0,0)" font-family="Arial" font-size="12">35000</text>
<text x="294" y="30" fill="rgb(0,0,0)" font-family="Arial" font-size="12">Quality score distribution over all sequences</text>
<line x1="40" y1="560" x2="790" y2="560" stroke="rgb(0,0,0)" stroke-width="1"/>
<line x1="40" y1="560" x2="40" y2="40" stroke="rgb(0,0,0)" stroke-width="1"/>
<text x="296" y="595" fill="rgb(0,0,0)" font-family="Arial" font-size="12">Mean Sequence Quality (Phred Score)</text>
<text x="48" y="575" fill="rgb(0,0,0)" font-family="Arial" font-size="12">6</text>
<rect width="22" height="520" x="62" y="40" style="fill:rgb(230,230,230);stroke:none"/>
<text x="70" y="575" fill="rgb(0,0,0)" font-family="Arial" font-size="12">7</text>
<text x="92" y="575" fill="rgb(0,0,0)" font-family="Arial" font-size="12">8</text>
<rect width="22" height="520" x="106" y="40" style="fill:rgb(230,230,230);stroke:none"/>
<text x="114" y="575" fill="rgb(0,0,0)" font-family="Arial" font-size="12">9</text>
<text x="132" y="575" fill="rgb(0,0,0)" font-family="Arial" font-size="12">10</text>
<rect width="22" height="520" x="150" y="40" style="fill:rgb(230,230,230);stroke:none"/>
<text x="154" y="575" fill="rgb(0,0,0)" font-family="Arial" font-size="12">11</text>
<text x="176" y="575" fill="rgb(0,0,0)" font-family="Arial" font-size="12">12</text>
<rect width="22" height="520" x="194" y="40" style="fill:rgb(230,230,230);stroke:none"/>
<text x="198" y="575" fill="rgb(0,0,0)" font-family="Arial" font-size="12">13</text>
<text x="220" y="575" fill="rgb(0,0,0)" font-family="Arial" font-size="12">14</text>
<rect width="22" height="520" x="238" y="40" style="fill:rgb(230,230,230);stroke:none"/>
<text x="242" y="575" fill="rgb(0,0,0)" font-family="Arial" font-size="12">15</text>
<text x="264" y="575" fill="rgb(0,0,0)" font-family="Arial" font-size="12">16</text>
<rect width="22" height="520" x="282" y="40" style="fill:rgb(230,230,230);stroke:none"/>
<text x="286" y="575" fill="rgb(0,0,0)" font-family="Arial" font-size="12">17</text>
<text x="308" y="575" fill="rgb(0,0,0)" font-family="Arial" font-size="12">18</text>
<rect width="22" height="520" x="326" y="40" style="fill:rgb(230,230,230);stroke:none"/>
<text x="330" y="575" fill="rgb(0,0,0)" font-family="Arial" font-size="12">19</text>
<text x="352" y="575" fill="rgb(0,0,0)" font-family="Arial" font-size="12">20</text>
<rect width="22" height="520" x="370" y="40" style="fill:rgb(230,230,230);stroke:none"/>
<text x="374" y="575" fill="rgb(0,0,0)" font-family="Arial" font-size="12">21</text>
<text x="396" y="575" fill="rgb(0,0,0)" font-family="Arial" font-size="12">22</text>
<rect width="22" height="520" x="414" y="40" style="fill:rgb(230,230,230);stroke:none"/>
<text x="418" y="575" fill="rgb(0,0,0)" font-family="Arial" font-size="12">23</text>
<text x="440" y="575" fill="rgb(0,0,0)" font-family="Arial" font-size="12">24</text>
<rect width="22" height="520" x="458" y="40" style="fill:rgb(230,230,230);stroke:none"/>
<text x="462" y="575" fill="rgb(0,0,0)" font-family="Arial" font-size="12">25</text>
<text x="484" y="575" fill="rgb(0,0,0)" font-family="Arial" font-size="12">26</text>
<rect width="22" height="520" x="502" y="40" style="fill:rgb(230,230,230);stroke:none"/>
<text x="506" y="575" fill="rgb(0,0,0)" font-family="Arial" font-size="12">27</text>
<text x="528" y="575" fill="rgb(0,0,0)" font-family="Arial" font-size="12">28</text>
<rect width="22" height="520" x="546" y="40" style="fill:rgb(230,230,230);stroke:none"/>
<text x="550" y="575" fill="rgb(0,0,0)" font-family="Arial" font-size="12">29</text>
<text x="572" y="575" fill="rgb(0,0,0)" font-family="Arial" font-size="12">30</text>
<rect width="22" height="520" x="590" y="40" style="fill:rgb(230,230,230);stroke:none"/>
<text x="594" y="575" fill="rgb(0,0,0)" font-family="Arial" font-size="12">31</text>
<text x="616" y="575" fill="rgb(0,0,0)" font-family="Arial" font-size="12">32</text>
<rect width="22" height="520" x="634" y="40" style="fill:rgb(230,230,230);stroke:none"/>
<text x="638" y="575" fill="rgb(0,0,0)" font-family="Arial" font-size="12">33</text>
<text x="660" y="575" fill="rgb(0,0,0)" font-family="Arial" font-size="12">34</text>
<rect width="22" height="520" x="678" y="40" style="fill:rgb(230,230,230);stroke:none"/>
<text x="682" y="575" fill="rgb(0,0,0)" font-family="Arial" font-size="12">35</text>
<text x="704" y="575" fill="rgb(0,0,0)" font-family="Arial" font-size="12">36</text>
<rect width="22" height="520" x="722" y="40" style="fill:rgb(230,230,230);stroke:none"/>
<text x="726" y="575" fill="rgb(0,0,0)" font-family="Arial" font-size="12">37</text>
<text x="748" y="575" fill="rgb(0,0,0)" font-family="Arial" font-size="12">38</text>
<line x1="40" y1="560" x2="790" y2="560" stroke="rgb(180,180,180)" stroke-width="1"/>
<line x1="40" y1="489" x2="790" y2="489" stroke="rgb(180,180,180)" stroke-width="1"/>
<line x1="40" y1="418" x2="790" y2="418" stroke="rgb(180,180,180)" stroke-width="1"/>
<line x1="40" y1="347" x2="790" y2="347" stroke="rgb(180,180,180)" stroke-width="1"/>
<line x1="40" y1="275" x2="790" y2="275" stroke="rgb(180,180,180)" stroke-width="1"/>
<line x1="40" y1="204" x2="790" y2="204" stroke="rgb(180,180,180)" stroke-width="1"/>
<line x1="40" y1="133" x2="790" y2="133" stroke="rgb(180,180,180)" stroke-width="1"/>
<line x1="40" y1="61" x2="790" y2="61" stroke="rgb(180,180,180)" stroke-width="1"/>
<line x1="51" y1="560" x2="73" y2="560" stroke="rgb(136,34,85)" stroke-width="1"/>
<line x1="73" y1="560" x2="95" y2="560" stroke="rgb(136,34,85)" stroke-width="1"/>
<line x1="95" y1="560" x2="117" y2="559" stroke="rgb(136,34,85)" stroke-width="1"/>
<line x1="117" y1="559" x2="139" y2="557" stroke="rgb(136,34,85)" stroke-width="1"/>
<line x1="139" y1="557" x2="161" y2="550" stroke="rgb(136,34,85)" stroke-width="1"/>
<line x1="161" y1="550" x2="183" y2="536" stroke="rgb(136,34,85)" stroke-width="1"/>
<line x1="183" y1="536" x2="205" y2="517" stroke="rgb(136,34,85)" stroke-width="1"/>
<line x1="205" y1="517" x2="227" y2="497" stroke="rgb(136,34,85)" stroke-width="1"/>
<line x1="227" y1="497" x2="249" y2="473" stroke="rgb(136,34,85)" stroke-width="1"/>
<line x1="249" y1="473" x2="271" y2="447" stroke="rgb(136,34,85)" stroke-width="1"/>
<line x1="271" y1="447" x2="293" y2="420" stroke="rgb(136,34,85)" stroke-width="1"/>
<line x1="293" y1="420" x2="315" y2="395" stroke="rgb(136,34,85)" stroke-width="1"/>
<line x1="315" y1="395" x2="337" y2="359" stroke="rgb(136,34,85)" stroke-width="1"/>
<line x1="337" y1="359" x2="359" y2="323" stroke="rgb(136,34,85)" stroke-width="1"/>
<line x1="359" y1="323" x2="381" y2="292" stroke="rgb(136,34,85)" stroke-width="1"/>
<line x1="381" y1="292" x2="403" y2="248" stroke="rgb(136,34,85)" stroke-width="1"/>
<line x1="403" y1="248" x2="425" y2="211" stroke="rgb(136,34,85)" stroke-width="1"/>
<line x1="425" y1="211" x2="447" y2="168" stroke="rgb(136,34,85)" stroke-width="1"/>
<line x1="447" y1="168" x2="469" y2="133" stroke="rgb(136,34,85)" stroke-width="1"/>
<line x1="469" y1="133" x2="491" y2="97" stroke="rgb(136,34,85)" stroke-width="1"/>
<line x1="491" y1="97" x2="513" y2="67" stroke="rgb(136,34,85)" stroke-width="1"/>
<line x1="513" y1="67" x2="535" y2="49" stroke="rgb(136,34,85)" stroke-width="1"/>
<line x1="535" y1="49" x2="557" y2="40" stroke="rgb(136,34,85)" stroke-width="1"/>
<line x1="557" y1="40" x2="579" y2="44" stroke="rgb(136,34,85)" stroke-width="1"/>
<line x1="579" y1="44" x2="601" y2="73" stroke="rgb(136,34,85)" stroke-width="1"/>
<line x1="601" y1="73" x2="623" y2="133" stroke="rgb(136,34,85)" stroke-width="1"/>
<line x1="623" y1="133" x2="645" y2="205" stroke="rgb(136,34,85)" stroke-width="1"/>
<line x1="645" y1="205" x2="667" y2="303" stroke="rgb(136,34,85)" stroke-width="1"/>
<line x1="667" y1="303" x2="689" y2="389" stroke="rgb(136,34,85)" stroke-width="1"/>
<line x1="689" y1="389" x2="711" y2="463" stroke="rgb(136,34,85)" stroke-width="1"/>
<line x1="711" y1="463" x2="733" y2="524" stroke="rgb(136,34,85)" stroke-width="1"/>
<line x1="733" y1="524" x2="755" y2="560" stroke="rgb(136,34,85)" stroke-width="1"/>
<rect width="146" height="23" x="644" y="40" style="fill:rgb(255,255,255);stroke:none"/>
<rect width="146" height="23" x="644" y="40" rx="0" ry="0" style="fill:none;stroke-width:1;stroke:rgb(192,192,192)"/>
<text x="647" y="55" fill="rgb(136,34,85)" font-family="Arial" font-size="12" font-weight="bold">Average Quality per read</text>
</svg>
