<?xml version="1.0" standalone="no"?>
<!DOCTYPE svg PUBLIC "-//W3C//DTD SVG 1.1//EN" "http://www.w3.org/Graphics/SVG/1.1/DTD/svg11.dtd">
<svg width="800" height="600" version="1.1" xmlns="http://www.w3.org/2000/svg">
<rect width="800" height="600" x="0" y="0" style="fill:rgb(238,238,238);stroke:none"/>
<rect width="800" height="600" x="0" y="0" style="fill:rgb(255,255,255);stroke:none"/>
<text x="2" y="566" fill="rgb(0,0,0)" font-family="Arial" font-size="12">0</text>
<text x="2" y="510" fill="rgb(0,0,0)" font-family="Arial" font-size="12">2500</text>
<text x="2" y="454" fill="rgb(0,0,0)" font-family="Arial" font-size="12">5000</text>
<text x="2" y="398" fill="rgb(0,0,0)" font-family="Arial" font-size="12">7500</text>
<text x="2" y="342" fill="rgb(0,0,0)" font-family="Arial" font-size="12">10000</text>
<text x="2" y="286" fill="rgb(0,0,0)" font-family="Arial" font-size="12">12500</text>
<text x="2" y="230" fill="rgb(0,0,0)" font-family="Arial" font-size="12">15000</text>
<text x="2" y="174" fill="rgb(0,0,0)" font-family="Arial" font-size="12">17500</text>
<text x="2" y="118" fill="rgb(0,0,0)" font-family="Arial" font-size="12">20000</text>
<text x="2" y="62" fill="rgb(0,0,0)" font-family="Arial" font-size="12">22500</text>
<text x="321" y="30" fill="rgb(0,0,0)" font-family="Arial" font-size="12">GC distribution over all sequences</text>
<line x1="40" y1="560" x2="790" y2="560" stroke="rgb(0,0,0)" stroke-width="1"/>
<line x1="40" y1="560" x2="40" y2="40" stroke="rgb(0,0,0)" stroke-width="1"/>
<text x="342" y="595" fill="rgb(0,0,0)" font-family="Arial" font-size="12">Mean GC content (%)</text>
<text x="40" y="575" fill="rgb(0,0,0)" font-family="Arial" font-size="12">0</text>
<rect width="7" height="520" x="47" y="40" style="fill:rgb(230,230,230);stroke:none"/>
<text x="54" y="575" fill="rgb(0,0,0)" font-family="Arial" font-size="12">2</text>
<rect width="7" height="520" x="61" y="40" style="fill:rgb(230,230,230);stroke:none"/>
<text x="68" y="575" fill="rgb(0,0,0)" font-family="Arial" font-size="12">4</text>
<rect width="7" height="520" x="75" y="40" style="fill:rgb(230,230,230);stroke:none"/>
<text x="82" y="575" fill="rgb(0,0,0)" font-family="Arial" font-size="12">6</text>
<rect width="7" height="520" x="89" y="40" style="fill:rgb(230,230,230);stroke:none"/>
<text x="96" y="575" fill="rgb(0,0,0)" font-family="Arial" font-size="12">8</text>
<rect width="7" height="520" x="103" y="40" style="fill:rgb(230,230,230);stroke:none"/>
<rect width="7" height="520" x="117" y="40" style="fill:rgb(230,230,230);stroke:none"/>
<text x="113" y="575" fill="rgb(0,0,0)" font-family="Arial" font-size="12">11</text>
<rect width="7" height="520" x="131" y="40" style="fill:rgb(230,230,230);stroke:none"/>
<text x="134" y="575" fill="rgb(0,0,0)" font-family="Arial" font-size="12">14</text>
<rect width="7" height="520" x="145" y="40" style="fill:rgb(230,230,230);stroke:none"/>
<rect width="7" height="520" x="159" y="40" style="fill:rgb(230,230,230);stroke:none"/>
<text x="155" y="575" fill="rgb(0,0,0)" font-family="Arial" font-size="12">17</text>
<rect width="7" height="520" x="173" y="40" style="fill:rgb(230,230,230);stroke:none"/>
<text x="176" y="575" fill="rgb(0,0,0)" font-family="Arial" font-size="12">20</text>
<rect width="7" height="520" x="187" y="40" style="fill:rgb(230,230,230);stroke:none"/>
<rect width="7" height="520" x="201" y="40" style="fill:rgb(230,230,230);stroke:none"/>
<text x="197" y="575" fill="rgb(0,0,0)" font-family="Arial" font-size="12">23</text>
<rect width="7" height="520" x="215" y="40" style="fill:rgb(230,230,230);stroke:none"/>
<text x="218" y="575" fill="rgb(0,0,0)" font-family="Arial" font-size="12">26</text>
<rect width="7" height="520" x="229" y="40" style="fill:rgb(230,230,230);stroke:none"/>
<rect width="7" height="520" x="243" y="40" style="fill:rgb(230,230,230);stroke:none"/>
<text x="239" y="575" fill="rgb(0,0,0)" font-family="Arial" font-size="12">29</text>
<rect width="7" height="520" x="257" y="40" style="fill:rgb(230,230,230);stroke:none"/>
<text x="260" y="575" fill="rgb(0,0,0)" font-family="Arial" font-size="12">32</text>
<rect width="7" height="520" x="271" y="40" style="fill:rgb(230,230,230);stroke:none"/>
<rect width="7" height="520" x="285" y="40" style="fill:rgb(230,230,230);stroke:none"/>
<text x="281" y="575" fill="rgb(0,0,0)" font-family="Arial" font-size="12">35</text>
<rect width="7" height="520" x="299" y="40" style="fill:rgb(230,230,230);stroke:none"/>
<text x="302" y="575" fill="rgb(0,0,0)" font-family="Arial" font-size="12">38</text>
<rect width="7" height="520" x="313" y="40" style="fill:rgb(230,230,230);stroke:none"/>
<rect width="7" height="520" x="327" y="40" style="fill:rgb(230,230,230);stroke:none"/>
<text x="323" y="575" fill="rgb(0,0,0)" font-family="Arial" font-size="12">41</text>
<rect width="7" height="520" x="341" y="40" style="fill:rgb(230,230,230);stroke:none"/>
<text x="344" y="575" fill="rgb(0,0,0)" font-family="Arial" font-size="12">44</text>
<rect width="7" height="520" x="355" y="40" style="fill:rgb(230,230,230);stroke:none"/>
<rect width="7" height="520" x="369" y="40" style="fill:rgb(230,230,230);stroke:none"/>
<text x="365" y="575" fill="rgb(0,0,0)" font-family="Arial" font-size="12">47</text>
<rect width="7" height="520" x="383" y="40" style="fill:rgb(230,230,230);stroke:none"/>
<text x="386" y="575" fill="rgb(0,0,0)" font-family="Arial" font-size="12">50</text>
<rect width="7" height="520" x="397" y="40" style="fill:rgb(230,230,230);stroke:none"/>
<rect width="7" height="520" x="411" y="40" style="fill:rgb(230,230,230);stroke:none"/>
<text x="407" y="575" fill="rgb(0,0,0)" font-family="Arial" font-size="12">53</text>
<rect width="7" height="520" x="425" y="40" style="fill:rgb(230,230,230);stroke:none"/>
<text x="428" y="575" fill="rgb(0,0,0)" font-family="Arial" font-size="12">56</text>
<rect width="7" height="520" x="439" y="40" style="fill:rgb(230,230,230);stroke:none"/>
<rect width="7" height="520" x="453" y="40" style="fill:rgb(230,230,230);stroke:none"/>
<text x="449" y="575" fill="rgb(0,0,0)" font-family="Arial" font-size="12">59</text>
<rect width="7" height="520" x="467" y="40" style="fill:rgb(230,230,230);stroke:none"/>
<text x="470" y="575" fill="rgb(0,0,0)" font-family="Arial" font-size="12">62</text>
<rect width="7" height="520" x="481" y="40" style="fill:rgb(230,230,230);stroke:none"/>
<rect width="7" height="520" x="495" y="40" style="fill:rgb(230,230,230);stroke:none"/>
<text x="491" y="575" fill="rgb(0,0,0)" font-family="Arial" font-size="12">65</text>
<rect width="7" height="520" x="509" y="40" style="fill:rgb(230,230,230);stroke:none"/>
<text x="512" y="575" fill="rgb(0,0,0)" font-family="Arial" font-size="12">68</text>
<rect width="7" height="520" x="523" y="40" style="fill:rgb(230,230,230);stroke:none"/>
<rect width="7" height="520" x="537" y="40" style="fill:rgb(230,230,230);stroke:none"/>
<text x="533" y="575" fill="rgb(0,0,0)" font-family="Arial" font-size="12">71</text>
<rect width="7" height="520" x="551" y="40" style="fill:rgb(230,230,230);stroke:none"/>
<text x="554" y="575" fill="rgb(0,0,0)" font-family="Arial" font-size="12">74</text>
<rect width="7" height="520" x="565" y="40" style="fill:rgb(230,230,230);stroke:none"/>
<rect width="7" height="520" x="579" y="40" style="fill:rgb(230,230,230);stroke:none"/>
<text x="575" y="575" fill="rgb(0,0,0)" font-family="Arial" font-size="12">77</text>
<rect width="7" height="520" x="593" y="40" style="fill:rgb(230,230,230);stroke:none"/>
<text x="596" y="575" fill="rgb(0,0,0)" font-family="Arial" font-size="12">80</text>
<rect width="7" height="520" x="607" y="40" style="fill:rgb(230,230,230);stroke:none"/>
<rect width="7" height="520" x="621" y="40" style="fill:rgb(230,230,230);stroke:none"/>
<text x="617" y="575" fill="rgb(0,0,0)" font-family="Arial" font-size="12">83</text>
<rect width="7" height="520" x="635" y="40" style="fill:rgb(230,230,230);stroke:none"/>
<text x="638" y="575" fill="rgb(0,0,0)" font-family="Arial" font-size="12">86</text>
<rect width="7" height="520" x="649" y="40" style="fill:rgb(230,230,230);stroke:none"/>
<rect width="7" height="520" x="663" y="40" style="fill:rgb(230,230,230);stroke:none"/>
<text x="659" y="575" fill="rgb(0,0,0)" font-family="Arial" font-size="12">89</text>
<rect width="7" height="520" x="677" y="40" style="fill:rgb(230,230,230);stroke:none"/>
<text x="680" y="575" fill="rgb(0,0,0)" font-family="Arial" font-size="12">92</text>
<rect width="7" height="520" x="691" y="40" style="fill:rgb(230,230,230);stroke:none"/>
<rect width="7" height="520" x="705" y="40" style="fill:rgb(230,230,230);stroke:none"/>
<text x="701" y="575" fill="rgb(0,0,0)" font-family="Arial" font-size="12">95</text>
<rect width="7" height="520" x="719" y="40" style="fill:rgb(230,230,230);stroke:none"/>
<text x="722" y="575" fill="rgb(0,0,0)" font-family="Arial" font-size="12">98</text>
<rect width="7" height="520" x="733" y="40" style="fill:rgb(230,230,230);stroke:none"/>
<line x1="40" y1="560" x2="790" y2="560" stroke="rgb(180,180,180)" stroke-width="1"/>
<line x1="40" y1="504" x2="790" y2="504" stroke="rgb(180,180,180)" stroke-width="1"/>
<line x1="40" y1="448" x2="790" y2="448" stroke="rgb(180,180,180)" stroke-width="1"/>
<line x1="40" y1="392" x2="790" y2="392" stroke="rgb(180,180,180)" stroke-width="1"/>
<line x1="40" y1="336" x2="790" y2="336" stroke="rgb(180,180,180)" stroke-width="1"/>
<line x1="40" y1="280" x2="790" y2="280" stroke="rgb(180,180,180)" stroke-width="1"/>
<line x1="40" y1="224" x2="790" y2="224" stroke="rgb(180,180,180)" stroke-width="1"/>
<line x1="40" y1="168" x2="790" y2="168" stroke="rgb(180,180,180)" stroke-width="1"/>
<line x1="40" y1="112" x2="790" y2="112" stroke="rgb(180,180,180)" stroke-width="1"/>
<line x1="40" y1="56" x2="790" y2="56" stroke="rgb(180,180,180)" stroke-width="1"/>
<line x1="43" y1="560" x2="50" y2="560" stroke="rgb(136,34,85)" stroke-width="1"/>
<line x1="50" y1="560" x2="57" y2="560" stroke="rgb(136,34,85)" stroke-width="1"/>
<line x1="57" y1="560" x2="64" y2="560" stroke="rgb(136,34,85)" stroke-width="1"/>
<line x1="64" y1="560" x2="71" y2="560" stroke="rgb(136,34,85)" stroke-width="1"/>
<line x1="71" y1="560" x2="78" y2="560" stroke="rgb(136,34,85)" stroke-width="1"/>
<line x1="78" y1="560" x2="85" y2="560" stroke="rgb(136,34,85)" stroke-width="1"/>
<line x1="85" y1="560" x2="92" y2="560" stroke="rgb(136,34,85)" stroke-width="1"/>
<line x1="92" y1="560" x2="99" y2="560" stroke="rgb(136,34,85)" stroke-width="1"/>
<line x1="99" y1="560" x2="106" y2="560" stroke="rgb(136,34,85)" stroke-width="1"/>
<line x1="106" y1="560" x2="113" y2="560" stroke="rgb(136,34,85)" stroke-width="1"/>
<line x1="113" y1="560" x2="120" y2="560" stroke="rgb(136,34,85)" stroke-width="1"/>
<line x1="120" y1="560" x2="127" y2="560" stroke="rgb(136,34,85)" stroke-width="1"/>
<line x1="127" y1="560" x2="134" y2="560" stroke="rgb(136,34,85)" stroke-width="1"/>
<line x1="134" y1="560" x2="141" y2="560" stroke="rgb(136,34,85)" stroke-width="1"/>
<line x1="141" y1="560" x2="148" y2="560" stroke="rgb(136,34,85)" stroke-width="1"/>
<line x1="148" y1="560" x2="155" y2="560" stroke="rgb(136,34,85)" stroke-width="1"/>
<line x1="155" y1="560" x2="162" y2="560" stroke="rgb(136,34,85)" stroke-width="1"/>
<line x1="162" y1="560" x2="169" y2="560" stroke="rgb(136,34,85)" stroke-width="1"/>
<line x1="169" y1="560" x2="176" y2="560" stroke="rgb(136,34,85)" stroke-width="1"/>
<line x1="176" y1="560" x2="183" y2="560" stroke="rgb(136,34,85)" stroke-width="1"/>
<line x1="183" y1="560" x2="190" y2="560" stroke="rgb(136,34,85)" stroke-width="1"/>
<line x1="190" y1="560" x2="197" y2="560" stroke="rgb(136,34,85)" stroke-width="1"/>
<line x1="197" y1="560" x2="204" y2="560" stroke="rgb(136,34,85)" stroke-width="1"/>
<line x1="204" y1="560" x2="211" y2="560" stroke="rgb(136,34,85)" stroke-width="1"/>
<line x1="211" y1="560" x2="218" y2="560" stroke="rgb(136,34,85)" stroke-width="1"/>
<line x1="218" y1="560" x2="225" y2="560" stroke="rgb(136,34,85)" stroke-width="1"/>
<line x1="225" y1="560" x2="232" y2="560" stroke="rgb(136,34,85)" stroke-width="1"/>
<line x1="232" y1="560" x2="239" y2="560" stroke="rgb(136,34,85)" stroke-width="1"/>
<line x1="239" y1="560" x2="246" y2="560" stroke="rgb(136,34,85)" stroke-width="1"/>
<line x1="246" y1="560" x2="253" y2="560" stroke="rgb(136,34,85)" stroke-width="1"/>
<line x1="253" y1="560" x2="260" y2="560" stroke="rgb(136,34,85)" stroke-width="1"/>
<line x1="260" y1="560" x2="267" y2="560" stroke="rgb(136,34,85)" stroke-width="1"/>
<line x1="267" y1="560" x2="274" y2="560" stroke="rgb(136,34,85)" stroke-width="1"/>
<line x1="274" y1="560" x2="281" y2="560" stroke="rgb(136,34,85)" stroke-width="1"/>
<line x1="281" y1="560" x2="288" y2="560" stroke="rgb(136,34,85)" stroke-width="1"/>
<line x1="288" y1="560" x2="295" y2="560" stroke="rgb(136,34,85)" stroke-width="1"/>
<line x1="295" y1="560" x2="302" y2="560" stroke="rgb(136,34,85)" stroke-width="1"/>
<line x1="302" y1="560" x2="309" y2="560" stroke="rgb(136,34,85)" stroke-width="1"/>
<line x1="309" y1="560" x2="316" y2="560" stroke="rgb(136,34,85)" stroke-width="1"/>
<line x1="316" y1="560" x2="323" y2="560" stroke="rgb(136,34,85)" stroke-width="1"/>
<line x1="323" y1="560" x2="330" y2="560" stroke="rgb(136,34,85)" stroke-width="1"/>
<line x1="330" y1="560" x2="337" y2="560" stroke="rgb(136,34,85)" stroke-width="1"/>
<line x1="337" y1="560" x2="344" y2="559" stroke="rgb(136,34,85)" stroke-width="1"/>
<line x1="344" y1="559" x2="351" y2="559" stroke="rgb(136,34,85)" stroke-width="1"/>
<line x1="351" y1="559" x2="358" y2="558" stroke="rgb(136,34,85)" stroke-width="1"/>
<line x1="358" y1="558" x2="365" y2="557" stroke="rgb(136,34,85)" stroke-width="1"/>
<line x1="365" y1="557" x2="372" y2="556" stroke="rgb(136,34,85)" stroke-width="1"/>
<line x1="372" y1="556" x2="379" y2="555" stroke="rgb(136,34,85)" stroke-width="1"/>
<line x1="379" y1="555" x2="386" y2="552" stroke="rgb(136,34,85)" stroke-width="1"/>
<line x1="386" y1="552" x2="393" y2="550" stroke="rgb(136,34,85)" stroke-width="1"/>
<line x1="393" y1="550" x2="400" y2="546" stroke="rgb(136,34,85)" stroke-width="1"/>
<line x1="400" y1="546" x2="407" y2="540" stroke="rgb(136,34,85)" stroke-width="1"/>
<line x1="407" y1="540" x2="414" y2="533" stroke="rgb(136,34,85)" stroke-width="1"/>
<line x1="414" y1="533" x2="421" y2="522" stroke="rgb(136,34,85)" stroke-width="1"/>
<line x1="421" y1="522" x2="428" y2="509" stroke="rgb(136,34,85)" stroke-width="1"/>
<line x1="428" y1="509" x2="435" y2="487" stroke="rgb(136,34,85)" stroke-width="1"/>
<line x1="435" y1="487" x2="442" y2="456" stroke="rgb(136,34,85)" stroke-width="1"/>
<line x1="442" y1="456" x2="449" y2="419" stroke="rgb(136,34,85)" stroke-width="1"/>
<line x1="449" y1="419" x2="456" y2="368" stroke="rgb(136,34,85)" stroke-width="1"/>
<line x1="456" y1="368" x2="463" y2="309" stroke="rgb(136,34,85)" stroke-width="1"/>
<line x1="463" y1="309" x2="470" y2="244" stroke="rgb(136,34,85)" stroke-width="1"/>
<line x1="470" y1="244" x2="477" y2="173" stroke="rgb(136,34,85)" stroke-width="1"/>
<line x1="477" y1="173" x2="484" y2="111" stroke="rgb(136,34,85)" stroke-width="1"/>
<line x1="484" y1="111" x2="491" y2="66" stroke="rgb(136,34,85)" stroke-width="1"/>
<line x1="491" y1="66" x2="498" y2="40" stroke="rgb(136,34,85)" stroke-width="1"/>
<line x1="498" y1="40" x2="505" y2="43" stroke="rgb(136,34,85)" stroke-width="1"/>
<line x1="505" y1="43" x2="512" y2="68" stroke="rgb(136,34,85)" stroke-width="1"/>
<line x1="512" y1="68" x2="519" y2="111" stroke="rgb(136,34,85)" stroke-width="1"/>
<line x1="519" y1="111" x2="526" y2="169" stroke="rgb(136,34,85)" stroke-width="1"/>
<line x1="526" y1="169" x2="533" y2="235" stroke="rgb(136,34,85)" stroke-width="1"/>
<line x1="533" y1="235" x2="540" y2="298" stroke="rgb(136,34,85)" stroke-width="1"/>
<line x1="540" y1="298" x2="547" y2="354" stroke="rgb(136,34,85)" stroke-width="1"/>
<line x1="547" y1="354" x2="554" y2="402" stroke="rgb(136,34,85)" stroke-width="1"/>
<line x1="554" y1="402" x2="561" y2="440" stroke="rgb(136,34,85)" stroke-width="1"/>
<line x1="561" y1="440" x2="568" y2="470" stroke="rgb(136,34,85)" stroke-width="1"/>
<line x1="568" y1="470" x2="575" y2="495" stroke="rgb(136,34,85)" stroke-width="1"/>
<line x1="575" y1="495" x2="582" y2="512" stroke="rgb(136,34,85)" stroke-width="1"/>
<line x1="582" y1="512" x2="589" y2="524" stroke="rgb(136,34,85)" stroke-width="1"/>
<line x1="589" y1="524" x2="596" y2="533" stroke="rgb(136,34,85)" stroke-width="1"/>
<line x1="596" y1="533" x2="603" y2="540" stroke="rgb(136,34,85)" stroke-width="1"/>
<line x1="603" y1="540" x2="610" y2="545" stroke="rgb(136,34,85)" stroke-width="1"/>
<line x1="610" y1="545" x2="617" y2="548" stroke="rgb(136,34,85)" stroke-width="1"/>
<line x1="617" y1="548" x2="624" y2="551" stroke="rgb(136,34,85)" stroke-width="1"/>
<line x1="624" y1="551" x2="631" y2="554" stroke="rgb(136,34,85)" stroke-width="1"/>
<line x1="631" y1="554" x2="638" y2="555" stroke="rgb(136,34,85)" stroke-width="1"/>
<line x1="638" y1="555" x2="645" y2="557" stroke="rgb(136,34,85)" stroke-width="1"/>
<line x1="645" y1="557" x2="652" y2="558" stroke="rgb(136,34,85)" stroke-width="1"/>
<line x1="652" y1="558" x2="659" y2="558" stroke="rgb(136,34,85)" stroke-width="1"/>
<line x1="659" y1="558" x2="666" y2="559" stroke="rgb(136,34,85)" stroke-width="1"/>
<line x1="666" y1="559" x2="673" y2="559" stroke="rgb(136,34,85)" stroke-width="1"/>
<line x1="673" y1="559" x2="680" y2="559" stroke="rgb(136,34,85)" stroke-width="1"/>
<line x1="680" y1="559" x2="687" y2="560" stroke="rgb(136,34,85)" stroke-width="1"/>
<line x1="687" y1="560" x2="694" y2="560" stroke="rgb(136,34,85)" stroke-width="1"/>
<line x1="694" y1="560" x2="701" y2="560" stroke="rgb(136,34,85)" stroke-width="1"/>
<line x1="701" y1="560" x2="708" y2="560" stroke="rgb(136,34,85)" stroke-width="1"/>
<line x1="708" y1="560" x2="715" y2="560" stroke="rgb(136,34,85)" stroke-width="1"/>
<line x1="715" y1="560" x2="722" y2="560" stroke="rgb(136,34,85)" stroke-width="1"/>
<line x1="722" y1="560" x2="729" y2="560" stroke="rgb(136,34,85)" stroke-width="1"/>
<line x1="729" y1="560" x2="736" y2="560" stroke="rgb(136,34,85)" stroke-width="1"/>
<line x1="736" y1="560" x2="743" y2="560" stroke="rgb(136,34,85)" stroke-width="1"/>
<line x1="43" y1="560" x2="50" y2="560" stroke="rgb(51,34,136)" stroke-width="1"/>
<line x1="50" y1="560" x2="57" y2="560" stroke="rgb(51,34,136)" stroke-width="1"/>
<line x1="57" y1="560" x2="64" y2="560" stroke="rgb(51,34,136)" stroke-width="1"/>
<line x1="64" y1="560" x2="71" y2="560" stroke="rgb(51,34,136)" stroke-width="1"/>
<line x1="71" y1="560" x2="78" y2="560" stroke="rgb(51,34,136)" stroke-width="1"/>
<line x1="78" y1="560" x2="85" y2="560" stroke="rgb(51,34,136)" stroke-width="1"/>
<line x1="85" y1="560" x2="92" y2="560" stroke="rgb(51,34,136)" stroke-width="1"/>
<line x1="92" y1="560" x2="99" y2="560" stroke="rgb(51,34,136)" stroke-width="1"/>
<line x1="99" y1="560" x2="106" y2="560" stroke="rgb(51,34,136)" stroke-width="1"/>
<line x1="106" y1="560" x2="113" y2="560" stroke="rgb(51,34,136)" stroke-width="1"/>
<line x1="113" y1="560" x2="120" y2="560" stroke="rgb(51,34,136)" stroke-width="1"/>
<line x1="120" y1="560" x2="127" y2="560" stroke="rgb(51,34,136)" stroke-width="1"/>
<line x1="127" y1="560" x2="134" y2="560" stroke="rgb(51,34,136)" stroke-width="1"/>
<line x1="134" y1="560" x2="141" y2="560" stroke="rgb(51,34,136)" stroke-width="1"/>
<line x1="141" y1="560" x2="148" y2="560" stroke="rgb(51,34,136)" stroke-width="1"/>
<line x1="148" y1="560" x2="155" y2="560" stroke="rgb(51,34,136)" stroke-width="1"/>
<line x1="155" y1="560" x2="162" y2="560" stroke="rgb(51,34,136)" stroke-width="1"/>
<line x1="162" y1="560" x2="169" y2="560" stroke="rgb(51,34,136)" stroke-width="1"/>
<line x1="169" y1="560" x2="176" y2="560" stroke="rgb(51,34,136)" stroke-width="1"/>
<line x1="176" y1="560" x2="183" y2="560" stroke="rgb(51,34,136)" stroke-width="1"/>
<line x1="183" y1="560" x2="190" y2="560" stroke="rgb(51,34,136)" stroke-width="1"/>
<line x1="190" y1="560" x2="197" y2="560" stroke="rgb(51,34,136)" stroke-width="1"/>
<line x1="197" y1="560" x2="204" y2="560" stroke="rgb(51,34,136)" stroke-width="1"/>
<line x1="204" y1="560" x2="211" y2="560" stroke="rgb(51,34,136)" stroke-width="1"/>
<line x1="211" y1="560" x2="218" y2="560" stroke="rgb(51,34,136)" stroke-width="1"/>
<line x1="218" y1="560" x2="225" y2="560" stroke="rgb(51,34,136)" stroke-width="1"/>
<line x1="225" y1="560" x2="232" y2="560" stroke="rgb(51,34,136)" stroke-width="1"/>
<line x1="232" y1="560" x2="239" y2="560" stroke="rgb(51,34,136)" stroke-width="1"/>
<line x1="239" y1="560" x2="246" y2="560" stroke="rgb(51,34,136)" stroke-width="1"/>
<line x1="246" y1="560" x2="253" y2="560" stroke="rgb(51,34,136)" stroke-width="1"/>
<line x1="253" y1="560" x2="260" y2="560" stroke="rgb(51,34,136)" stroke-width="1"/>
<line x1="260" y1="560" x2="267" y2="560" stroke="rgb(51,34,136)" stroke-width="1"/>
<line x1="267" y1="560" x2="274" y2="560" stroke="rgb(51,34,136)" stroke-width="1"/>
<line x1="274" y1="560" x2="281" y2="560" stroke="rgb(51,34,136)" stroke-width="1"/>
<line x1="281" y1="560" x2="288" y2="560" stroke="rgb(51,34,136)" stroke-width="1"/>
<line x1="288" y1="560" x2="295" y2="560" stroke="rgb(51,34,136)" stroke-width="1"/>
<line x1="295" y1="560" x2="302" y2="560" stroke="rgb(51,34,136)" stroke-width="1"/>
<line x1="302" y1="560" x2="309" y2="560" stroke="rgb(51,34,136)" stroke-width="1"/>
<line x1="309" y1="560" x2="316" y2="560" stroke="rgb(51,34,136)" stroke-width="1"/>
<line x1="316" y1="560" x2="323" y2="560" stroke="rgb(51,34,136)" stroke-width="1"/>
<line x1="323" y1="560" x2="330" y2="560" stroke="rgb(51,34,136)" stroke-width="1"/>
<line x1="330" y1="560" x2="337" y2="560" stroke="rgb(51,34,136)" stroke-width="1"/>
<line x1="337" y1="560" x2="344" y2="560" stroke="rgb(51,34,136)" stroke-width="1"/>
<line x1="344" y1="560" x2="351" y2="560" stroke="rgb(51,34,136)" stroke-width="1"/>
<line x1="351" y1="560" x2="358" y2="560" stroke="rgb(51,34,136)" stroke-width="1"/>
<line x1="358" y1="560" x2="365" y2="559" stroke="rgb(51,34,136)" stroke-width="1"/>
<line x1="365" y1="559" x2="372" y2="558" stroke="rgb(51,34,136)" stroke-width="1"/>
<line x1="372" y1="558" x2="379" y2="557" stroke="rgb(51,34,136)" stroke-width="1"/>
<line x1="379" y1="557" x2="386" y2="554" stroke="rgb(51,34,136)" stroke-width="1"/>
<line x1="386" y1="554" x2="393" y2="550" stroke="rgb(51,34,136)" stroke-width="1"/>
<line x1="393" y1="550" x2="400" y2="544" stroke="rgb(51,34,136)" stroke-width="1"/>
<line x1="400" y1="544" x2="407" y2="535" stroke="rgb(51,34,136)" stroke-width="1"/>
<line x1="407" y1="535" x2="414" y2="522" stroke="rgb(51,34,136)" stroke-width="1"/>
<line x1="414" y1="522" x2="421" y2="504" stroke="rgb(51,34,136)" stroke-width="1"/>
<line x1="421" y1="504" x2="428" y2="481" stroke="rgb(51,34,136)" stroke-width="1"/>
<line x1="428" y1="481" x2="435" y2="451" stroke="rgb(51,34,136)" stroke-width="1"/>
<line x1="435" y1="451" x2="442" y2="415" stroke="rgb(51,34,136)" stroke-width="1"/>
<line x1="442" y1="415" x2="449" y2="374" stroke="rgb(51,34,136)" stroke-width="1"/>
<line x1="449" y1="374" x2="456" y2="327" stroke="rgb(51,34,136)" stroke-width="1"/>
<line x1="456" y1="327" x2="463" y2="279" stroke="rgb(51,34,136)" stroke-width="1"/>
<line x1="463" y1="279" x2="470" y2="231" stroke="rgb(51,34,136)" stroke-width="1"/>
<line x1="470" y1="231" x2="477" y2="186" stroke="rgb(51,34,136)" stroke-width="1"/>
<line x1="477" y1="186" x2="484" y2="149" stroke="rgb(51,34,136)" stroke-width="1"/>
<line x1="484" y1="149" x2="491" y2="122" stroke="rgb(51,34,136)" stroke-width="1"/>
<line x1="491" y1="122" x2="498" y2="108" stroke="rgb(51,34,136)" stroke-width="1"/>
<line x1="498" y1="108" x2="505" y2="108" stroke="rgb(51,34,136)" stroke-width="1"/>
<line x1="505" y1="108" x2="512" y2="122" stroke="rgb(51,34,136)" stroke-width="1"/>
<line x1="512" y1="122" x2="519" y2="149" stroke="rgb(51,34,136)" stroke-width="1"/>
<line x1="519" y1="149" x2="526" y2="186" stroke="rgb(51,34,136)" stroke-width="1"/>
<line x1="526" y1="186" x2="533" y2="231" stroke="rgb(51,34,136)" stroke-width="1"/>
<line x1="533" y1="231" x2="540" y2="279" stroke="rgb(51,34,136)" stroke-width="1"/>
<line x1="540" y1="279" x2="547" y2="327" stroke="rgb(51,34,136)" stroke-width="1"/>
<line x1="547" y1="327" x2="554" y2="374" stroke="rgb(51,34,136)" stroke-width="1"/>
<line x1="554" y1="374" x2="561" y2="415" stroke="rgb(51,34,136)" stroke-width="1"/>
<line x1="561" y1="415" x2="568" y2="451" stroke="rgb(51,34,136)" stroke-width="1"/>
<line x1="568" y1="451" x2="575" y2="481" stroke="rgb(51,34,136)" stroke-width="1"/>
<line x1="575" y1="481" x2="582" y2="504" stroke="rgb(51,34,136)" stroke-width="1"/>
<line x1="582" y1="504" x2="589" y2="522" stroke="rgb(51,34,136)" stroke-width="1"/>
<line x1="589" y1="522" x2="596" y2="535" stroke="rgb(51,34,136)" stroke-width="1"/>
<line x1="596" y1="535" x2="603" y2="544" stroke="rgb(51,34,136)" stroke-width="1"/>
<line x1="603" y1="544" x2="610" y2="550" stroke="rgb(51,34,136)" stroke-width="1"/>
<line x1="610" y1="550" x2="617" y2="554" stroke="rgb(51,34,136)" stroke-width="1"/>
<line x1="617" y1="554" x2="624" y2="557" stroke="rgb(51,34,136)" stroke-width="1"/>
<line x1="624" y1="557" x2="631" y2="558" stroke="rgb(51,34,136)" stroke-width="1"/>
<line x1="631" y1="558" x2="638" y2="559" stroke="rgb(51,34,136)" stroke-width="1"/>
<line x1="638" y1="559" x2="645" y2="560" stroke="rgb(51,34,136)" stroke-width="1"/>
<line x1="645" y1="560" x2="652" y2="560" stroke="rgb(51,34,136)" stroke-width="1"/>
<line x1="652" y1="560" x2="659" y2="560" stroke="rgb(51,34,136)" stroke-width="1"/>
<line x1="659" y1="560" x2="666" y2="560" stroke="rgb(51,34,136)" stroke-width="1"/>
<line x1="666" y1="560" x2="673" y2="560" stroke="rgb(51,34,136)" stroke-width="1"/>
<line x1="673" y1="560" x2="680" y2="560" stroke="rgb(51,34,136)" stroke-width="1"/>
<line x1="680" y1="560" x2="687" y2="560" stroke="rgb(51,34,136)" stroke-width="1"/>
<line x1="687" y1="560" x2="694" y2="560" stroke="rgb(51,34,136)" stroke-width="1"/>
<line x1="694" y1="560" x2="701" y2="560" stroke="rgb(51,34,136)" stroke-width="1"/>
<line x1="701" y1="560" x2="708" y2="560" stroke="rgb(51,34,136)" stroke-width="1"/>
<line x1="708" y1="560" x2="715" y2="560" stroke="rgb(51,34,136)" stroke-width="1"/>
<line x1="715" y1="560" x2="722" y2="560" stroke="rgb(51,34,136)" stroke-width="1"/>
<line x1="722" y1="560" x2="729" y2="560" stroke="rgb(51,34,136)" stroke-width="1"/>
<line x1="729" y1="560" x2="736" y2="560" stroke="rgb(51,34,136)" stroke-width="1"/>
<line x1="736" y1="560" x2="743" y2="560" stroke="rgb(51,34,136)" stroke-width="1"/>
<rect width="138" height="43" x="652" y="40" style="fill:rgb(255,255,255);stroke:none"/>
<rect width="138" height="43" x="652" y="40" rx="0" ry="0" style="fill:none;stroke-width:1;stroke:rgb(192,192,192)"/>
<text x="655" y="55" fill="rgb(136,34,85)" font-family="Arial" font-size="12" font-weight="bold">GC count per read</text>
<text x="655" y="75" fill="rgb(51,34,136)" font-family="Arial" font-size="12" font-weight="bold">Theoretical Distribution</text>
</svg>
