<?xml version="1.0" standalone="no"?>
<!DOCTYPE svg PUBLIC "-//W3C//DTD SVG 1.1//EN" "http://www.w3.org/Graphics/SVG/1.1/DTD/svg11.dtd">
<svg width="800" height="600" version="1.1" xmlns="http://www.w3.org/2000/svg">
<rect width="800" height="600" x="0" y="0" style="fill:rgb(238,238,238);stroke:none"/>
<rect width="800" height="600" x="0" y="0" style="fill:rgb(255,255,255);stroke:none"/>
<text x="2" y="566" fill="rgb(0,0,0)" font-family="Arial" font-size="12">0</text>
<text x="2" y="493" fill="rgb(0,0,0)" font-family="Arial" font-size="12">50000</text>
<text x="2" y="419" fill="rgb(0,0,0)" font-family="Arial" font-size="12">100000</text>
<text x="2" y="345" fill="rgb(0,0,0)" font-family="Arial" font-size="12">150000</text>
<text x="2" y="272" fill="rgb(0,0,0)" font-family="Arial" font-size="12">200000</text>
<text x="2" y="198" fill="rgb(0,0,0)" font-family="Arial" font-size="12">250000</text>
<text x="2" y="124" fill="rgb(0,0,0)" font-family="Arial" font-size="12">300000</text>
<text x="2" y="50" fill="rgb(0,0,0)" font-family="Arial" font-size="12">350000</text>
<text x="276" y="30" fill="rgb(0,0,0)" font-family="Arial" font-size="12">Distribution of sequence lengths over all sequences</text>
<line x1="47" y1="560" x2="790" y2="560" stroke="rgb(0,0,0)" stroke-width="1"/>
<line x1="47" y1="560" x2="47" y2="40" stroke="rgb(0,0,0)" stroke-width="1"/>
<text x="339" y="595" fill="rgb(0,0,0)" font-family="Arial" font-size="12">Sequence Length (bp)</text>
<text x="39" y="575" fill="rgb(0,0,0)" font-family="Arial" font-size="12">30-34</text>
<rect width="16" height="520" x="63" y="40" style="fill:rgb(230,230,230);stroke:none"/>
<rect width="16" height="520" x="95" y="40" style="fill:rgb(230,230,230);stroke:none"/>
<text x="87" y="575" fill="rgb(0,0,0)" font-family="Arial" font-size="12">45-49</text>
<rect width="16" height="520" x="127" y="40" style="fill:rgb(230,230,230);stroke:none"/>
<text x="135" y="575" fill="rgb(0,0,0)" font-family="Arial" font-size="12">60-64</text>
<rect width="16" height="520" x="159" y="40" style="fill:rgb(230,230,230);stroke:none"/>
<rect width="16" height="520" x="191" y="40" style="fill:rgb(230,230,230);stroke:none"/>
<text x="183" y="575" fill="rgb(0,0,0)" font-family="Arial" font-size="12">75-79</text>
<rect width="16" height="520" x="223" y="40" style="fill:rgb(230,230,230);stroke:none"/>
<text x="231" y="575" fill="rgb(0,0,0)" font-family="Arial" font-size="12">90-94</text>
<rect width="16" height="520" x="255" y="40" style="fill:rgb(230,230,230);stroke:none"/>
<rect width="16" height="520" x="287" y="40" style="fill:rgb(230,230,230);stroke:none"/>
<text x="272" y="575" fill="rgb(0,0,0)" font-family="Arial" font-size="12">105-109</text>
<rect width="16" height="520" x="319" y="40" style="fill:rgb(230,230,230);stroke:none"/>
<rect width="16" height="520" x="351" y="40" style="fill:rgb(230,230,230);stroke:none"/>
<text x="336" y="575" fill="rgb(0,0,0)" font-family="Arial" font-size="12">125-129</text>
<rect width="16" height="520" x="383" y="40" style="fill:rgb(230,230,230);stroke:none"/>
<rect width="16" height="520" x="415" y="40" style="fill:rgb(230,230,230);stroke:none"/>
<text x="400" y="575" fill="rgb(0,0,0)" font-family="Arial" font-size="12">145-149</text>
<rect width="16" height="520" x="447" y="40" style="fill:rgb(230,230,230);stroke:none"/>
<rect width="16" height="520" x="479" y="40" style="fill:rgb(230,230,230);stroke:none"/>
<text x="464" y="575" fill="rgb(0,0,0)" font-family="Arial" font-size="12">165-169</text>
<rect width="16" height="520" x="511" y="40" style="fill:rgb(230,230,230);stroke:none"/>
<rect width="16" height="520" x="543" y="40" style="fill:rgb(230,230,230);stroke:none"/>
<text x="528" y="575" fill="rgb(0,0,0)" font-family="Arial" font-size="12">185-189</text>
<rect width="16" height="520" x="575" y="40" style="fill:rgb(230,230,230);stroke:none"/>
<rect width="16" height="520" x="607" y="40" style="fill:rgb(230,230,230);stroke:none"/>
<text x="592" y="575" fill="rgb(0,0,0)" font-family="Arial" font-size="12">205-209</text>
<rect width="16" height="520" x="639" y="40" style="fill:rgb(230,230,230);stroke:none"/>
<rect width="16" height="520" x="671" y="40" style="fill:rgb(230,230,230);stroke:none"/>
<text x="656" y="575" fill="rgb(0,0,0)" font-family="Arial" font-size="12">225-229</text>
<rect width="16" height="520" x="703" y="40" style="fill:rgb(230,230,230);stroke:none"/>
<rect width="16" height="520" x="735" y="40" style="fill:rgb(230,230,230);stroke:none"/>
<text x="720" y="575" fill="rgb(0,0,0)" font-family="Arial" font-size="12">245-249</text>
<line x1="47" y1="560" x2="790" y2="560" stroke="rgb(180,180,180)" stroke-width="1"/>
<line x1="47" y1="487" x2="790" y2="487" stroke="rgb(180,180,180)" stroke-width="1"/>
<line x1="47" y1="413" x2="790" y2="413" stroke="rgb(180,180,180)" stroke-width="1"/>
<line x1="47" y1="339" x2="790" y2="339" stroke="rgb(180,180,180)" stroke-width="1"/>
<line x1="47" y1="266" x2="790" y2="266" stroke="rgb(180,180,180)" stroke-width="1"/>
<line x1="47" y1="192" x2="790" y2="192" stroke="rgb(180,180,180)" stroke-width="1"/>
<line x1="47" y1="118" x2="790" y2="118" stroke="rgb(180,180,180)" stroke-width="1"/>
<line x1="47" y1="44" x2="790" y2="44" stroke="rgb(180,180,180)" stroke-width="1"/>
<line x1="55" y1="560" x2="71" y2="560" stroke="rgb(136,34,85)" stroke-width="1"/>
<line x1="71" y1="560" x2="87" y2="560" stroke="rgb(136,34,85)" stroke-width="1"/>
<line x1="87" y1="560" x2="103" y2="560" stroke="rgb(136,34,85)" stroke-width="1"/>
<line x1="103" y1="560" x2="119" y2="560" stroke="rgb(136,34,85)" stroke-width="1"/>
<line x1="119" y1="560" x2="135" y2="560" stroke="rgb(136,34,85)" stroke-width="1"/>
<line x1="135" y1="560" x2="151" y2="560" stroke="rgb(136,34,85)" stroke-width="1"/>
<line x1="151" y1="560" x2="167" y2="560" stroke="rgb(136,34,85)" stroke-width="1"/>
<line x1="167" y1="560" x2="183" y2="560" stroke="rgb(136,34,85)" stroke-width="1"/>
<line x1="183" y1="560" x2="199" y2="560" stroke="rgb(136,34,85)" stroke-width="1"/>
<line x1="199" y1="560" x2="215" y2="559" stroke="rgb(136,34,85)" stroke-width="1"/>
<line x1="215" y1="559" x2="231" y2="559" stroke="rgb(136,34,85)" stroke-width="1"/>
<line x1="231" y1="559" x2="247" y2="559" stroke="rgb(136,34,85)" stroke-width="1"/>
<line x1="247" y1="559" x2="263" y2="559" stroke="rgb(136,34,85)" stroke-width="1"/>
<line x1="263" y1="559" x2="279" y2="559" stroke="rgb(136,34,85)" stroke-width="1"/>
<line x1="279" y1="559" x2="295" y2="559" stroke="rgb(136,34,85)" stroke-width="1"/>
<line x1="295" y1="559" x2="311" y2="558" stroke="rgb(136,34,85)" stroke-width="1"/>
<line x1="311" y1="558" x2="327" y2="558" stroke="rgb(136,34,85)" stroke-width="1"/>
<line x1="327" y1="558" x2="343" y2="558" stroke="rgb(136,34,85)" stroke-width="1"/>
<line x1="343" y1="558" x2="359" y2="558" stroke="rgb(136,34,85)" stroke-width="1"/>
<line x1="359" y1="558" x2="375" y2="557" stroke="rgb(136,34,85)" stroke-width="1"/>
<line x1="375" y1="557" x2="391" y2="557" stroke="rgb(136,34,85)" stroke-width="1"/>
<line x1="391" y1="557" x2="407" y2="557" stroke="rgb(136,34,85)" stroke-width="1"/>
<line x1="407" y1="557" x2="423" y2="557" stroke="rgb(136,34,85)" stroke-width="1"/>
<line x1="423" y1="557" x2="439" y2="557" stroke="rgb(136,34,85)" stroke-width="1"/>
<line x1="439" y1="557" x2="455" y2="556" stroke="rgb(136,34,85)" stroke-width="1"/>
<line x1="455" y1="556" x2="471" y2="556" stroke="rgb(136,34,85)" stroke-width="1"/>
<line x1="471" y1="556" x2="487" y2="556" stroke="rgb(136,34,85)" stroke-width="1"/>
<line x1="487" y1="556" x2="503" y2="555" stroke="rgb(136,34,85)" stroke-width="1"/>
<line x1="503" y1="555" x2="519" y2="555" stroke="rgb(136,34,85)" stroke-width="1"/>
<line x1="519" y1="555" x2="535" y2="555" stroke="rgb(136,34,85)" stroke-width="1"/>
<line x1="535" y1="555" x2="551" y2="554" stroke="rgb(136,34,85)" stroke-width="1"/>
<line x1="551" y1="554" x2="567" y2="554" stroke="rgb(136,34,85)" stroke-width="1"/>
<line x1="567" y1="554" x2="583" y2="554" stroke="rgb(136,34,85)" stroke-width="1"/>
<line x1="583" y1="554" x2="599" y2="553" stroke="rgb(136,34,85)" stroke-width="1"/>
<line x1="599" y1="553" x2="615" y2="553" stroke="rgb(136,34,85)" stroke-width="1"/>
<line x1="615" y1="553" x2="631" y2="553" stroke="rgb(136,34,85)" stroke-width="1"/>
<line x1="631" y1="553" x2="647" y2="553" stroke="rgb(136,34,85)" stroke-width="1"/>
<line x1="647" y1="553" x2="663" y2="553" stroke="rgb(136,34,85)" stroke-width="1"/>
<line x1="663" y1="553" x2="679" y2="552" stroke="rgb(136,34,85)" stroke-width="1"/>
<line x1="679" y1="552" x2="695" y2="552" stroke="rgb(136,34,85)" stroke-width="1"/>
<line x1="695" y1="552" x2="711" y2="552" stroke="rgb(136,34,85)" stroke-width="1"/>
<line x1="711" y1="552" x2="727" y2="546" stroke="rgb(136,34,85)" stroke-width="1"/>
<line x1="727" y1="546" x2="743" y2="505" stroke="rgb(136,34,85)" stroke-width="1"/>
<line x1="743" y1="505" x2="759" y2="40" stroke="rgb(136,34,85)" stroke-width="1"/>
<rect width="105" height="23" x="685" y="40" style="fill:rgb(255,255,255);stroke:none"/>
<rect width="105" height="23" x="685" y="40" rx="0" ry="0" style="fill:none;stroke-width:1;stroke:rgb(192,192,192)"/>
<text x="688" y="55" fill="rgb(136,34,85)" font-family="Arial" font-size="12" font-weight="bold">Sequence Length</text>
</svg>
